<svg width="335" height="108" viewBox="0 0 335 108" fill="none" xmlns="http://www.w3.org/2000/svg">
<rect width="335" height="107.2" transform="translate(0 0.09375)" fill="#FFEAE8"/>
<path d="M81.1338 38.1938V25.0598H76.6458V22.7938H88.4598V25.0598H83.9498V38.1938H81.1338ZM90.5458 38.1938V22.7938H93.3618V29.1958H100.27V22.7938H103.086V38.1938H100.27V31.4838H93.3618V38.1938H90.5458ZM105.089 38.1938L110.721 22.7938H113.889L119.521 38.1938H116.529L115.297 34.6298H109.291L108.037 38.1938H105.089ZM110.061 32.4298H114.527L112.283 26.0278L110.061 32.4298ZM121.505 38.1938V22.7938H124.321L131.559 33.6398V22.7938H134.375V38.1938H131.559L124.321 27.3698V38.1938H121.505ZM137.36 38.1938V22.7938H140.176V29.0198L145.874 22.7938H149.35L143.674 28.9098L149.504 38.1938H146.05L141.65 31.0658L140.176 32.6718V38.1938H137.36ZM160.657 38.1938V32.7158L155.487 22.7938H158.677L162.087 29.8998L165.475 22.7938H168.621L163.473 32.7158V38.1938H160.657ZM176.652 38.4578C175.112 38.4578 173.763 38.1205 172.604 37.4458C171.46 36.7712 170.558 35.8398 169.898 34.6518C169.253 33.4492 168.93 32.0632 168.93 30.4938C168.93 28.9245 169.253 27.5458 169.898 26.3578C170.558 25.1552 171.46 24.2165 172.604 23.5418C173.763 22.8672 175.112 22.5298 176.652 22.5298C178.178 22.5298 179.52 22.8672 180.678 23.5418C181.837 24.2165 182.739 25.1552 183.384 26.3578C184.03 27.5458 184.352 28.9245 184.352 30.4938C184.352 32.0632 184.03 33.4492 183.384 34.6518C182.739 35.8398 181.837 36.7712 180.678 37.4458C179.52 38.1205 178.178 38.4578 176.652 38.4578ZM176.652 35.9278C178.119 35.9278 179.285 35.4438 180.15 34.4758C181.03 33.5078 181.47 32.1805 181.47 30.4938C181.47 28.8072 181.03 27.4798 180.15 26.5118C179.285 25.5438 178.119 25.0598 176.652 25.0598C175.186 25.0598 174.012 25.5438 173.132 26.5118C172.252 27.4798 171.812 28.8072 171.812 30.4938C171.812 32.1805 172.252 33.5078 173.132 34.4758C174.012 35.4438 175.186 35.9278 176.652 35.9278ZM192.779 38.4578C191.649 38.4578 190.63 38.2378 189.721 37.7978C188.811 37.3432 188.085 36.6612 187.543 35.7518C187.015 34.8425 186.751 33.6912 186.751 32.2978V22.7938H189.567V32.3198C189.567 33.5225 189.853 34.4172 190.425 35.0038C191.011 35.5905 191.818 35.8838 192.845 35.8838C193.857 35.8838 194.656 35.5905 195.243 35.0038C195.829 34.4172 196.123 33.5225 196.123 32.3198V22.7938H198.939V32.2978C198.939 33.6912 198.66 34.8425 198.103 35.7518C197.545 36.6612 196.797 37.3432 195.859 37.7978C194.935 38.2378 193.908 38.4578 192.779 38.4578ZM212.314 38.4578C211.184 38.4578 210.187 38.2672 209.322 37.8858C208.456 37.4898 207.774 36.9325 207.276 36.2138C206.777 35.4805 206.52 34.5932 206.506 33.5518H209.476C209.505 34.2705 209.762 34.8792 210.246 35.3778C210.744 35.8618 211.426 36.1038 212.292 36.1038C213.04 36.1038 213.634 35.9278 214.074 35.5758C214.514 35.2092 214.734 34.7252 214.734 34.1238C214.734 33.4932 214.536 33.0018 214.14 32.6498C213.758 32.2978 213.245 32.0118 212.6 31.7918C211.954 31.5718 211.265 31.3372 210.532 31.0878C209.344 30.6772 208.434 30.1492 207.804 29.5038C207.188 28.8585 206.88 28.0005 206.88 26.9298C206.865 26.0205 207.078 25.2432 207.518 24.5978C207.972 23.9378 208.588 23.4318 209.366 23.0798C210.143 22.7132 211.038 22.5298 212.05 22.5298C213.076 22.5298 213.978 22.7132 214.756 23.0798C215.548 23.4465 216.164 23.9598 216.604 24.6198C217.058 25.2798 217.3 26.0645 217.33 26.9738H214.316C214.301 26.4312 214.088 25.9545 213.678 25.5438C213.282 25.1185 212.724 24.9058 212.006 24.9058C211.39 24.8912 210.869 25.0452 210.444 25.3678C210.033 25.6758 209.828 26.1305 209.828 26.7318C209.828 27.2452 209.989 27.6558 210.312 27.9638C210.634 28.2572 211.074 28.5065 211.632 28.7118C212.189 28.9172 212.827 29.1372 213.546 29.3718C214.308 29.6358 215.005 29.9438 215.636 30.2958C216.266 30.6478 216.772 31.1172 217.154 31.7038C217.535 32.2758 217.726 33.0165 217.726 33.9258C217.726 34.7325 217.52 35.4805 217.11 36.1698C216.699 36.8592 216.09 37.4165 215.284 37.8418C214.477 38.2525 213.487 38.4578 212.314 38.4578ZM219.193 38.1938L224.825 22.7938H227.993L233.625 38.1938H230.633L229.401 34.6298H223.395L222.141 38.1938H219.193ZM224.165 32.4298H228.631L226.387 26.0278L224.165 32.4298ZM235.608 38.1938V22.7938H238.424V35.9938H245.244V38.1938H235.608ZM247.725 38.1938V22.7938H257.779V25.0598H250.541V29.2838H257.119V31.4838H250.541V35.9278H257.779V38.1938H247.725ZM31.1914 71.1938V65.3418L26.1754 55.7938H28.2654L32.1154 63.5818L35.9654 55.7938H38.0334L33.0394 65.3418V71.1938H31.1914ZM42.9875 71.4578C41.9461 71.4578 41.0221 71.2232 40.2155 70.7538C39.4088 70.2698 38.7708 69.6025 38.3015 68.7518C37.8468 67.9012 37.6195 66.8965 37.6195 65.7378C37.6195 64.5938 37.8468 63.5965 38.3015 62.7458C38.7561 61.8805 39.3868 61.2132 40.1935 60.7438C41.0148 60.2598 41.9608 60.0178 43.0315 60.0178C44.0875 60.0178 44.9968 60.2598 45.7595 60.7438C46.5368 61.2132 47.1308 61.8365 47.5415 62.6138C47.9521 63.3912 48.1575 64.2272 48.1575 65.1218C48.1575 65.2832 48.1501 65.4445 48.1355 65.6058C48.1355 65.7672 48.1355 65.9505 48.1355 66.1558H39.4455C39.4895 66.9918 39.6801 67.6885 40.0175 68.2458C40.3695 68.7885 40.8021 69.1992 41.3155 69.4778C41.8435 69.7565 42.4008 69.8958 42.9875 69.8958C43.7501 69.8958 44.3881 69.7198 44.9015 69.3678C45.4148 69.0158 45.7888 68.5392 46.0235 67.9378H47.8495C47.5561 68.9498 46.9915 69.7932 46.1555 70.4678C45.3341 71.1278 44.2781 71.4578 42.9875 71.4578ZM42.9875 61.5798C42.1075 61.5798 41.3228 61.8512 40.6335 62.3938C39.9588 62.9218 39.5701 63.6992 39.4675 64.7258H46.3315C46.2875 63.7432 45.9501 62.9732 45.3195 62.4158C44.6888 61.8585 43.9115 61.5798 42.9875 61.5798ZM54.2369 71.4578C53.3275 71.4578 52.5722 71.3038 51.9709 70.9958C51.3695 70.6878 50.9222 70.2772 50.6289 69.7638C50.3355 69.2505 50.1889 68.6932 50.1889 68.0918C50.1889 66.9772 50.6142 66.1192 51.4649 65.5178C52.3155 64.9165 53.4742 64.6158 54.9409 64.6158H57.8889V64.4838C57.8889 63.5305 57.6395 62.8118 57.1409 62.3278C56.6422 61.8292 55.9749 61.5798 55.1389 61.5798C54.4202 61.5798 53.7969 61.7632 53.2689 62.1298C52.7555 62.4818 52.4329 63.0025 52.3009 63.6918H50.4089C50.4822 62.8998 50.7462 62.2325 51.2009 61.6898C51.6702 61.1472 52.2495 60.7365 52.9389 60.4578C53.6282 60.1645 54.3615 60.0178 55.1389 60.0178C56.6642 60.0178 57.8082 60.4285 58.5709 61.2498C59.3482 62.0565 59.7369 63.1345 59.7369 64.4838V71.1938H58.0869L57.9769 69.2358C57.6689 69.8518 57.2142 70.3798 56.6129 70.8198C56.0262 71.2452 55.2342 71.4578 54.2369 71.4578ZM54.5229 69.8958C55.2269 69.8958 55.8282 69.7125 56.3269 69.3458C56.8402 68.9792 57.2289 68.5025 57.4929 67.9158C57.7569 67.3292 57.8889 66.7132 57.8889 66.0678V66.0458H55.0949C54.0095 66.0458 53.2395 66.2365 52.7849 66.6178C52.3449 66.9845 52.1249 67.4465 52.1249 68.0038C52.1249 68.5758 52.3302 69.0378 52.7409 69.3898C53.1662 69.7272 53.7602 69.8958 54.5229 69.8958ZM62.5092 71.1938V60.2818H64.1812L64.3352 62.3718C64.6725 61.6532 65.1859 61.0812 65.8752 60.6558C66.5645 60.2305 67.4152 60.0178 68.4272 60.0178V61.9538H67.9212C67.2759 61.9538 66.6819 62.0712 66.1392 62.3058C65.5965 62.5258 65.1639 62.9072 64.8412 63.4498C64.5185 63.9925 64.3572 64.7405 64.3572 65.6938V71.1938H62.5092ZM70.5014 71.1938V55.3538H72.3494V71.1938H70.5014ZM76.5664 76.0338L79.2724 70.1378H78.6344L74.3004 60.2818H76.3024L79.9104 68.7738L83.7384 60.2818H85.6524L78.5024 76.0338H76.5664ZM98.4412 71.4578C97.3119 71.4578 96.3292 71.2525 95.4932 70.8418C94.6572 70.4312 94.0119 69.8592 93.5572 69.1258C93.1026 68.3925 92.8752 67.5418 92.8752 66.5738H94.8112C94.8112 67.1752 94.9506 67.7325 95.2292 68.2458C95.5079 68.7445 95.9112 69.1478 96.4392 69.4558C96.9819 69.7492 97.6492 69.8958 98.4412 69.8958C99.4826 69.8958 100.289 69.6465 100.861 69.1478C101.433 68.6492 101.719 68.0258 101.719 67.2778C101.719 66.6618 101.587 66.1705 101.323 65.8038C101.059 65.4225 100.7 65.1145 100.245 64.8798C99.8052 64.6452 99.2919 64.4398 98.7052 64.2638C98.1332 64.0878 97.5319 63.8898 96.9012 63.6698C95.7132 63.2592 94.8332 62.7532 94.2612 62.1518C93.6892 61.5358 93.4032 60.7365 93.4032 59.7538C93.3886 58.9325 93.5792 58.2065 93.9752 57.5758C94.3712 56.9305 94.9286 56.4318 95.6472 56.0798C96.3806 55.7132 97.2459 55.5298 98.2432 55.5298C99.2259 55.5298 100.077 55.7132 100.795 56.0798C101.529 56.4465 102.093 56.9525 102.489 57.5978C102.9 58.2432 103.113 58.9765 103.127 59.7978H101.191C101.191 59.3725 101.081 58.9545 100.861 58.5438C100.641 58.1185 100.304 57.7738 99.8492 57.5098C99.4092 57.2458 98.8519 57.1138 98.1772 57.1138C97.3412 57.0992 96.6519 57.3118 96.1092 57.7518C95.5812 58.1918 95.3172 58.8005 95.3172 59.5778C95.3172 60.2378 95.5006 60.7438 95.8672 61.0958C96.2486 61.4478 96.7766 61.7412 97.4512 61.9758C98.1259 62.1958 98.9032 62.4525 99.7832 62.7458C100.517 63.0098 101.177 63.3178 101.763 63.6698C102.35 64.0218 102.805 64.4765 103.127 65.0338C103.465 65.5912 103.633 66.3025 103.633 67.1678C103.633 67.9012 103.443 68.5978 103.061 69.2578C102.68 69.9032 102.101 70.4312 101.323 70.8418C100.561 71.2525 99.5999 71.4578 98.4412 71.4578ZM110.126 71.4578C108.835 71.4578 107.809 71.0692 107.046 70.2918C106.283 69.4998 105.902 68.2898 105.902 66.6618V60.2818H107.75V66.4638C107.75 68.7372 108.681 69.8738 110.544 69.8738C111.497 69.8738 112.282 69.5365 112.898 68.8618C113.529 68.1725 113.844 67.1972 113.844 65.9358V60.2818H115.692V71.1938H114.02L113.888 69.2358C113.551 69.9252 113.045 70.4678 112.37 70.8638C111.71 71.2598 110.962 71.4578 110.126 71.4578ZM124.564 71.4578C123.669 71.4578 122.87 71.2745 122.166 70.9078C121.476 70.5412 120.948 70.0278 120.582 69.3678L120.406 71.1938H118.734V55.3538H120.582V62.0858C120.934 61.5578 121.432 61.0812 122.078 60.6558C122.738 60.2305 123.574 60.0178 124.586 60.0178C125.671 60.0178 126.617 60.2672 127.424 60.7658C128.23 61.2645 128.854 61.9465 129.294 62.8118C129.748 63.6772 129.976 64.6598 129.976 65.7598C129.976 66.8598 129.748 67.8425 129.294 68.7078C128.854 69.5585 128.223 70.2332 127.402 70.7318C126.595 71.2158 125.649 71.4578 124.564 71.4578ZM124.366 69.8518C125.099 69.8518 125.744 69.6832 126.302 69.3458C126.859 68.9938 127.299 68.5098 127.622 67.8938C127.944 67.2778 128.106 66.5592 128.106 65.7378C128.106 64.9165 127.944 64.1978 127.622 63.5818C127.299 62.9658 126.859 62.4892 126.302 62.1518C125.744 61.7998 125.099 61.6238 124.366 61.6238C123.632 61.6238 122.987 61.7998 122.43 62.1518C121.872 62.4892 121.432 62.9658 121.11 63.5818C120.787 64.1978 120.626 64.9165 120.626 65.7378C120.626 66.5592 120.787 67.2778 121.11 67.8938C121.432 68.5098 121.872 68.9938 122.43 69.3458C122.987 69.6832 123.632 69.8518 124.366 69.8518ZM136.728 71.4578C135.423 71.4578 134.338 71.1278 133.472 70.4678C132.607 69.8078 132.101 68.9132 131.954 67.7838H133.846C133.964 68.3558 134.264 68.8545 134.748 69.2798C135.247 69.6905 135.914 69.8958 136.75 69.8958C137.528 69.8958 138.1 69.7345 138.466 69.4118C138.833 69.0745 139.016 68.6785 139.016 68.2238C139.016 67.5638 138.774 67.1238 138.29 66.9038C137.821 66.6838 137.154 66.4858 136.288 66.3098C135.702 66.1925 135.115 66.0238 134.528 65.8038C133.942 65.5838 133.45 65.2758 133.054 64.8798C132.658 64.4692 132.46 63.9338 132.46 63.2738C132.46 62.3205 132.812 61.5432 133.516 60.9418C134.235 60.3258 135.203 60.0178 136.42 60.0178C137.579 60.0178 138.525 60.3112 139.258 60.8978C140.006 61.4698 140.439 62.2912 140.556 63.3618H138.73C138.657 62.8045 138.415 62.3718 138.004 62.0638C137.608 61.7412 137.073 61.5798 136.398 61.5798C135.738 61.5798 135.225 61.7192 134.858 61.9978C134.506 62.2765 134.33 62.6432 134.33 63.0978C134.33 63.5378 134.558 63.8825 135.012 64.1318C135.482 64.3812 136.112 64.5938 136.904 64.7698C137.579 64.9165 138.217 65.0998 138.818 65.3198C139.434 65.5252 139.933 65.8405 140.314 66.2658C140.71 66.6765 140.908 67.2778 140.908 68.0698C140.923 69.0525 140.549 69.8665 139.786 70.5118C139.038 71.1425 138.019 71.4578 136.728 71.4578ZM148.564 71.4578C147.523 71.4578 146.584 71.2232 145.748 70.7538C144.927 70.2698 144.274 69.6025 143.79 68.7518C143.321 67.8865 143.086 66.8818 143.086 65.7378C143.086 64.5938 143.321 63.5965 143.79 62.7458C144.274 61.8805 144.927 61.2132 145.748 60.7438C146.584 60.2598 147.523 60.0178 148.564 60.0178C149.855 60.0178 150.94 60.3552 151.82 61.0298C152.715 61.7045 153.28 62.6065 153.514 63.7358H151.622C151.476 63.0612 151.116 62.5405 150.544 62.1738C149.972 61.7925 149.305 61.6018 148.542 61.6018C147.926 61.6018 147.347 61.7558 146.804 62.0638C146.262 62.3718 145.822 62.8338 145.484 63.4498C145.147 64.0658 144.978 64.8285 144.978 65.7378C144.978 66.6472 145.147 67.4098 145.484 68.0258C145.822 68.6418 146.262 69.1112 146.804 69.4338C147.347 69.7418 147.926 69.8958 148.542 69.8958C149.305 69.8958 149.972 69.7125 150.544 69.3458C151.116 68.9645 151.476 68.4292 151.622 67.7398H153.514C153.294 68.8398 152.737 69.7345 151.842 70.4238C150.948 71.1132 149.855 71.4578 148.564 71.4578ZM156.095 71.1938V60.2818H157.767L157.921 62.3718C158.258 61.6532 158.772 61.0812 159.461 60.6558C160.15 60.2305 161.001 60.0178 162.013 60.0178V61.9538H161.507C160.862 61.9538 160.268 62.0712 159.725 62.3058C159.182 62.5258 158.75 62.9072 158.427 63.4498C158.104 63.9925 157.943 64.7405 157.943 65.6938V71.1938H156.095ZM165.209 57.8618C164.843 57.8618 164.535 57.7445 164.285 57.5098C164.051 57.2605 163.933 56.9525 163.933 56.5858C163.933 56.2338 164.051 55.9405 164.285 55.7058C164.535 55.4712 164.843 55.3538 165.209 55.3538C165.561 55.3538 165.862 55.4712 166.111 55.7058C166.361 55.9405 166.485 56.2338 166.485 56.5858C166.485 56.9525 166.361 57.2605 166.111 57.5098C165.862 57.7445 165.561 57.8618 165.209 57.8618ZM164.285 71.1938V60.2818H166.133V71.1938H164.285ZM169.351 76.0338V60.2818H171.023L171.199 62.0858C171.551 61.5578 172.05 61.0812 172.695 60.6558C173.355 60.2305 174.191 60.0178 175.203 60.0178C176.288 60.0178 177.234 60.2672 178.041 60.7658C178.848 61.2645 179.471 61.9465 179.911 62.8118C180.366 63.6772 180.593 64.6598 180.593 65.7598C180.593 66.8598 180.366 67.8425 179.911 68.7078C179.471 69.5585 178.84 70.2332 178.019 70.7318C177.212 71.2158 176.266 71.4578 175.181 71.4578C174.286 71.4578 173.487 71.2745 172.783 70.9078C172.094 70.5412 171.566 70.0278 171.199 69.3678V76.0338H169.351ZM174.983 69.8518C175.716 69.8518 176.362 69.6832 176.919 69.3458C177.476 68.9938 177.916 68.5098 178.239 67.8938C178.562 67.2778 178.723 66.5592 178.723 65.7378C178.723 64.9165 178.562 64.1978 178.239 63.5818C177.916 62.9658 177.476 62.4892 176.919 62.1518C176.362 61.7998 175.716 61.6238 174.983 61.6238C174.25 61.6238 173.604 61.7998 173.047 62.1518C172.49 62.4892 172.05 62.9658 171.727 63.5818C171.404 64.1978 171.243 64.9165 171.243 65.7378C171.243 66.5592 171.404 67.2778 171.727 67.8938C172.05 68.5098 172.49 68.9938 173.047 69.3458C173.604 69.6832 174.25 69.8518 174.983 69.8518ZM187.048 71.1938C186.05 71.1938 185.266 70.9518 184.694 70.4678C184.122 69.9838 183.836 69.1112 183.836 67.8498V61.8438H181.944V60.2818H183.836L184.078 57.6638H185.684V60.2818H188.896V61.8438H185.684V67.8498C185.684 68.5392 185.823 69.0085 186.102 69.2578C186.38 69.4925 186.872 69.6098 187.576 69.6098H188.72V71.1938H187.048ZM192.366 57.8618C191.999 57.8618 191.691 57.7445 191.442 57.5098C191.207 57.2605 191.09 56.9525 191.09 56.5858C191.09 56.2338 191.207 55.9405 191.442 55.7058C191.691 55.4712 191.999 55.3538 192.366 55.3538C192.718 55.3538 193.018 55.4712 193.268 55.7058C193.517 55.9405 193.642 56.2338 193.642 56.5858C193.642 56.9525 193.517 57.2605 193.268 57.5098C193.018 57.7445 192.718 57.8618 192.366 57.8618ZM191.442 71.1938V60.2818H193.29V71.1938H191.442ZM201.479 71.4578C200.453 71.4578 199.529 71.2232 198.707 70.7538C197.886 70.2845 197.233 69.6245 196.749 68.7738C196.28 67.9085 196.045 66.8965 196.045 65.7378C196.045 64.5792 196.287 63.5745 196.771 62.7238C197.255 61.8585 197.908 61.1912 198.729 60.7218C199.565 60.2525 200.497 60.0178 201.523 60.0178C202.55 60.0178 203.474 60.2525 204.295 60.7218C205.117 61.1912 205.762 61.8585 206.231 62.7238C206.715 63.5745 206.957 64.5792 206.957 65.7378C206.957 66.8965 206.715 67.9085 206.231 68.7738C205.747 69.6245 205.087 70.2845 204.251 70.7538C203.43 71.2232 202.506 71.4578 201.479 71.4578ZM201.479 69.8738C202.11 69.8738 202.697 69.7198 203.239 69.4118C203.782 69.1038 204.222 68.6418 204.559 68.0258C204.897 67.4098 205.065 66.6472 205.065 65.7378C205.065 64.8285 204.897 64.0658 204.559 63.4498C204.237 62.8338 203.804 62.3718 203.261 62.0638C202.719 61.7558 202.139 61.6018 201.523 61.6018C200.893 61.6018 200.306 61.7558 199.763 62.0638C199.221 62.3718 198.781 62.8338 198.443 63.4498C198.106 64.0658 197.937 64.8285 197.937 65.7378C197.937 66.6472 198.106 67.4098 198.443 68.0258C198.781 68.6418 199.213 69.1038 199.741 69.4118C200.284 69.7198 200.863 69.8738 201.479 69.8738ZM209.527 71.1938V60.2818H211.199L211.309 62.2398C211.661 61.5505 212.167 61.0078 212.827 60.6118C213.487 60.2158 214.235 60.0178 215.071 60.0178C216.361 60.0178 217.388 60.4138 218.151 61.2058C218.928 61.9832 219.317 63.1858 219.317 64.8138V71.1938H217.469V65.0118C217.469 62.7385 216.53 61.6018 214.653 61.6018C213.714 61.6018 212.929 61.9465 212.299 62.6358C211.683 63.3105 211.375 64.2785 211.375 65.5398V71.1938H209.527ZM233.439 71.4578C232.31 71.4578 231.334 71.2598 230.513 70.8638C229.706 70.4678 229.068 69.9252 228.599 69.2358C228.144 68.5318 227.88 67.7398 227.807 66.8598H230.557C230.689 67.4905 231.012 68.0185 231.525 68.4438C232.038 68.8545 232.676 69.0598 233.439 69.0598C234.26 69.0598 234.928 68.7592 235.441 68.1578C235.969 67.5565 236.233 66.8085 236.233 65.9138C236.233 64.9898 235.969 64.2565 235.441 63.7138C234.928 63.1712 234.275 62.8998 233.483 62.8998C232.823 62.8998 232.251 63.0612 231.767 63.3838C231.283 63.7065 230.938 64.1098 230.733 64.5938H228.027L229.347 55.7938H237.883V58.2578H231.459L230.755 61.8218C231.078 61.4698 231.518 61.1838 232.075 60.9638C232.632 60.7292 233.256 60.6118 233.945 60.6118C235.045 60.6118 235.962 60.8612 236.695 61.3598C237.428 61.8438 237.986 62.4892 238.367 63.2958C238.748 64.0878 238.939 64.9532 238.939 65.8918C238.939 66.9625 238.704 67.9158 238.235 68.7518C237.78 69.5878 237.135 70.2478 236.299 70.7318C235.478 71.2158 234.524 71.4578 233.439 71.4578ZM247.873 71.4578C246.451 71.4578 245.233 71.1278 244.221 70.4678C243.209 69.7932 242.425 68.8618 241.867 67.6738C241.325 66.4712 241.053 65.0778 241.053 63.4938C241.053 61.9245 241.325 60.5385 241.867 59.3358C242.425 58.1332 243.209 57.2018 244.221 56.5418C245.233 55.8672 246.451 55.5298 247.873 55.5298C249.296 55.5298 250.513 55.8672 251.525 56.5418C252.537 57.2018 253.315 58.1332 253.857 59.3358C254.415 60.5385 254.693 61.9245 254.693 63.4938C254.693 65.0778 254.415 66.4712 253.857 67.6738C253.315 68.8618 252.537 69.7932 251.525 70.4678C250.513 71.1278 249.296 71.4578 247.873 71.4578ZM247.873 68.9278C249.032 68.9278 249.978 68.4438 250.711 67.4758C251.445 66.5078 251.811 65.1805 251.811 63.4938C251.811 61.8072 251.445 60.4798 250.711 59.5118C249.978 58.5438 249.032 58.0598 247.873 58.0598C246.7 58.0598 245.747 58.5438 245.013 59.5118C244.295 60.4798 243.935 61.8072 243.935 63.4938C243.935 65.1805 244.295 66.5078 245.013 67.4758C245.747 68.4438 246.7 68.9278 247.873 68.9278ZM260.347 63.3618C259.643 63.3618 259.005 63.2078 258.433 62.8998C257.861 62.5772 257.406 62.1225 257.069 61.5358C256.731 60.9492 256.563 60.2525 256.563 59.4458C256.563 58.6392 256.731 57.9425 257.069 57.3558C257.406 56.7692 257.861 56.3218 258.433 56.0138C259.005 55.6912 259.65 55.5298 260.369 55.5298C261.073 55.5298 261.703 55.6912 262.261 56.0138C262.833 56.3218 263.287 56.7692 263.625 57.3558C263.962 57.9425 264.131 58.6392 264.131 59.4458C264.131 60.2525 263.962 60.9492 263.625 61.5358C263.287 62.1225 262.833 62.5772 262.261 62.8998C261.689 63.2078 261.051 63.3618 260.347 63.3618ZM259.511 71.1938L268.201 55.7938H270.951L262.261 71.1938H259.511ZM260.347 61.4038C260.772 61.4038 261.139 61.2425 261.447 60.9198C261.755 60.5825 261.909 60.0912 261.909 59.4458C261.909 58.8005 261.755 58.3092 261.447 57.9718C261.153 57.6345 260.787 57.4658 260.347 57.4658C259.907 57.4658 259.533 57.6345 259.225 57.9718C258.931 58.3092 258.785 58.8005 258.785 59.4458C258.785 60.0912 258.931 60.5825 259.225 60.9198C259.533 61.2425 259.907 61.4038 260.347 61.4038ZM270.203 71.4578C269.499 71.4578 268.861 71.3038 268.289 70.9958C267.717 70.6732 267.262 70.2185 266.925 69.6318C266.587 69.0452 266.419 68.3485 266.419 67.5418C266.419 66.7352 266.587 66.0458 266.925 65.4738C267.262 64.8872 267.717 64.4398 268.289 64.1318C268.861 63.8092 269.506 63.6478 270.225 63.6478C270.929 63.6478 271.559 63.8092 272.117 64.1318C272.689 64.4398 273.143 64.8872 273.481 65.4738C273.818 66.0458 273.987 66.7352 273.987 67.5418C273.987 68.3485 273.818 69.0452 273.481 69.6318C273.143 70.2185 272.689 70.6732 272.117 70.9958C271.559 71.3038 270.921 71.4578 270.203 71.4578ZM270.203 69.4998C270.643 69.4998 271.009 69.3385 271.303 69.0158C271.611 68.6785 271.765 68.1872 271.765 67.5418C271.765 66.8965 271.611 66.4052 271.303 66.0678C271.009 65.7305 270.643 65.5618 270.203 65.5618C269.763 65.5618 269.389 65.7305 269.081 66.0678C268.787 66.4052 268.641 66.8965 268.641 67.5418C268.641 68.1872 268.787 68.6785 269.081 69.0158C269.389 69.3385 269.763 69.4998 270.203 69.4998ZM286.776 71.4578C285.72 71.4578 284.767 71.2158 283.916 70.7318C283.08 70.2478 282.413 69.5805 281.914 68.7298C281.43 67.8645 281.188 66.8672 281.188 65.7378C281.188 64.6085 281.438 63.6185 281.936 62.7678C282.435 61.9025 283.102 61.2278 283.938 60.7438C284.789 60.2598 285.742 60.0178 286.798 60.0178C287.84 60.0178 288.778 60.2598 289.614 60.7438C290.465 61.2278 291.132 61.9025 291.616 62.7678C292.115 63.6185 292.364 64.6085 292.364 65.7378C292.364 66.8672 292.115 67.8645 291.616 68.7298C291.132 69.5805 290.465 70.2478 289.614 70.7318C288.764 71.2158 287.818 71.4578 286.776 71.4578ZM286.776 69.0158C287.51 69.0158 288.148 68.7445 288.69 68.2018C289.233 67.6445 289.504 66.8232 289.504 65.7378C289.504 64.6525 289.233 63.8385 288.69 63.2958C288.148 62.7385 287.517 62.4598 286.798 62.4598C286.05 62.4598 285.405 62.7385 284.862 63.2958C284.334 63.8385 284.07 64.6525 284.07 65.7378C284.07 66.8232 284.334 67.6445 284.862 68.2018C285.405 68.7445 286.043 69.0158 286.776 69.0158ZM295.388 71.1938V62.6358H293.892V60.2818H295.388V59.0058C295.388 57.6858 295.718 56.7472 296.378 56.1898C297.053 55.6325 297.962 55.3538 299.106 55.3538H300.316V57.7518H299.546C299.062 57.7518 298.717 57.8472 298.512 58.0378C298.307 58.2285 298.204 58.5512 298.204 59.0058V60.2818H300.558V62.6358H298.204V71.1938H295.388ZM303.294 71.1938V62.6358H301.798V60.2818H303.294V59.0058C303.294 57.6858 303.624 56.7472 304.284 56.1898C304.959 55.6325 305.868 55.3538 307.012 55.3538H308.222V57.7518H307.452C306.968 57.7518 306.624 57.8472 306.418 58.0378C306.213 58.2285 306.11 58.5512 306.11 59.0058V60.2818H308.464V62.6358H306.11V71.1938H303.294Z" fill="#29B64E"/>
<circle cx="161" cy="94.6938" r="2.5" fill="white" fill-opacity="0.5"/>
<circle cx="174" cy="94.6938" r="2.5" fill="white"/>
</svg>
