<svg width="844" height="71" viewBox="0 0 844 71" fill="none" xmlns="http://www.w3.org/2000/svg">
<rect width="843.34" height="70" transform="translate(0 0.670898)" fill="#FFEAE8"/>
<path d="M149.802 44.1709V31.0369H145.314V28.7709H157.128V31.0369H152.618V44.1709H149.802ZM159.214 44.1709V28.7709H162.03V35.1729H168.938V28.7709H171.754V44.1709H168.938V37.4609H162.03V44.1709H159.214ZM173.757 44.1709L179.389 28.7709H182.557L188.189 44.1709H185.197L183.965 40.6069H177.959L176.705 44.1709H173.757ZM178.729 38.4069H183.195L180.951 32.0049L178.729 38.4069ZM190.173 44.1709V28.7709H192.989L200.227 39.6169V28.7709H203.043V44.1709H200.227L192.989 33.3469V44.1709H190.173ZM206.028 44.1709V28.7709H208.844V34.9969L214.542 28.7709H218.018L212.342 34.8869L218.172 44.1709H214.718L210.318 37.0429L208.844 38.6489V44.1709H206.028ZM229.325 44.1709V38.6929L224.155 28.7709H227.345L230.755 35.8769L234.143 28.7709H237.289L232.141 38.6929V44.1709H229.325ZM245.32 44.4349C243.78 44.4349 242.431 44.0976 241.272 43.4229C240.128 42.7482 239.226 41.8169 238.566 40.6289C237.921 39.4262 237.598 38.0402 237.598 36.4709C237.598 34.9016 237.921 33.5229 238.566 32.3349C239.226 31.1322 240.128 30.1936 241.272 29.5189C242.431 28.8442 243.78 28.5069 245.32 28.5069C246.846 28.5069 248.188 28.8442 249.346 29.5189C250.505 30.1936 251.407 31.1322 252.052 32.3349C252.698 33.5229 253.02 34.9016 253.02 36.4709C253.02 38.0402 252.698 39.4262 252.052 40.6289C251.407 41.8169 250.505 42.7482 249.346 43.4229C248.188 44.0976 246.846 44.4349 245.32 44.4349ZM245.32 41.9049C246.787 41.9049 247.953 41.4209 248.818 40.4529C249.698 39.4849 250.138 38.1576 250.138 36.4709C250.138 34.7842 249.698 33.4569 248.818 32.4889C247.953 31.5209 246.787 31.0369 245.32 31.0369C243.854 31.0369 242.68 31.5209 241.8 32.4889C240.92 33.4569 240.48 34.7842 240.48 36.4709C240.48 38.1576 240.92 39.4849 241.8 40.4529C242.68 41.4209 243.854 41.9049 245.32 41.9049ZM261.447 44.4349C260.317 44.4349 259.298 44.2149 258.389 43.7749C257.479 43.3202 256.753 42.6382 256.211 41.7289C255.683 40.8196 255.419 39.6682 255.419 38.2749V28.7709H258.235V38.2969C258.235 39.4996 258.521 40.3942 259.093 40.9809C259.679 41.5676 260.486 41.8609 261.513 41.8609C262.525 41.8609 263.324 41.5676 263.911 40.9809C264.497 40.3942 264.791 39.4996 264.791 38.2969V28.7709H267.607V38.2749C267.607 39.6682 267.328 40.8196 266.771 41.7289C266.213 42.6382 265.465 43.3202 264.527 43.7749C263.603 44.2149 262.576 44.4349 261.447 44.4349ZM280.982 44.4349C279.852 44.4349 278.855 44.2442 277.99 43.8629C277.124 43.4669 276.442 42.9096 275.944 42.1909C275.445 41.4576 275.188 40.5702 275.174 39.5289H278.144C278.173 40.2476 278.43 40.8562 278.914 41.3549C279.412 41.8389 280.094 42.0809 280.96 42.0809C281.708 42.0809 282.302 41.9049 282.742 41.5529C283.182 41.1862 283.402 40.7022 283.402 40.1009C283.402 39.4702 283.204 38.9789 282.808 38.6269C282.426 38.2749 281.913 37.9889 281.268 37.7689C280.622 37.5489 279.933 37.3142 279.2 37.0649C278.012 36.6542 277.102 36.1262 276.472 35.4809C275.856 34.8356 275.548 33.9776 275.548 32.9069C275.533 31.9976 275.746 31.2202 276.186 30.5749C276.64 29.9149 277.256 29.4089 278.034 29.0569C278.811 28.6902 279.706 28.5069 280.718 28.5069C281.744 28.5069 282.646 28.6902 283.424 29.0569C284.216 29.4236 284.832 29.9369 285.272 30.5969C285.726 31.2569 285.968 32.0416 285.998 32.9509H282.984C282.969 32.4082 282.756 31.9316 282.346 31.5209C281.95 31.0956 281.392 30.8829 280.674 30.8829C280.058 30.8682 279.537 31.0222 279.112 31.3449C278.701 31.6529 278.496 32.1076 278.496 32.7089C278.496 33.2222 278.657 33.6329 278.98 33.9409C279.302 34.2342 279.742 34.4836 280.3 34.6889C280.857 34.8942 281.495 35.1142 282.214 35.3489C282.976 35.6129 283.673 35.9209 284.304 36.2729C284.934 36.6249 285.44 37.0942 285.822 37.6809C286.203 38.2529 286.394 38.9936 286.394 39.9029C286.394 40.7096 286.188 41.4576 285.778 42.1469C285.367 42.8362 284.758 43.3936 283.952 43.8189C283.145 44.2296 282.155 44.4349 280.982 44.4349ZM287.86 44.1709L293.492 28.7709H296.66L302.292 44.1709H299.3L298.068 40.6069H292.062L290.808 44.1709H287.86ZM292.832 38.4069H297.298L295.054 32.0049L292.832 38.4069ZM304.276 44.1709V28.7709H307.092V41.9709H313.912V44.1709H304.276ZM316.393 44.1709V28.7709H326.447V31.0369H319.209V35.2609H325.787V37.4609H319.209V41.9049H326.447V44.1709H316.393ZM334.736 38.5609V36.9989H343.448V38.5609H334.736ZM355.996 44.1709V38.3189L350.98 28.7709H353.07L356.92 36.5589L360.77 28.7709H362.838L357.844 38.3189V44.1709H355.996ZM367.792 44.4349C366.751 44.4349 365.827 44.2002 365.02 43.7309C364.213 43.2469 363.575 42.5796 363.106 41.7289C362.651 40.8782 362.424 39.8736 362.424 38.7149C362.424 37.5709 362.651 36.5736 363.106 35.7229C363.561 34.8576 364.191 34.1902 364.998 33.7209C365.819 33.2369 366.765 32.9949 367.836 32.9949C368.892 32.9949 369.801 33.2369 370.564 33.7209C371.341 34.1902 371.935 34.8136 372.346 35.5909C372.757 36.3682 372.962 37.2042 372.962 38.0989C372.962 38.2602 372.955 38.4216 372.94 38.5829C372.94 38.7442 372.94 38.9276 372.94 39.1329H364.25C364.294 39.9689 364.485 40.6656 364.822 41.2229C365.174 41.7656 365.607 42.1762 366.12 42.4549C366.648 42.7336 367.205 42.8729 367.792 42.8729C368.555 42.8729 369.193 42.6969 369.706 42.3449C370.219 41.9929 370.593 41.5162 370.828 40.9149H372.654C372.361 41.9269 371.796 42.7702 370.96 43.4449C370.139 44.1049 369.083 44.4349 367.792 44.4349ZM367.792 34.5569C366.912 34.5569 366.127 34.8282 365.438 35.3709C364.763 35.8989 364.375 36.6762 364.272 37.7029H371.136C371.092 36.7202 370.755 35.9502 370.124 35.3929C369.493 34.8356 368.716 34.5569 367.792 34.5569ZM379.042 44.4349C378.132 44.4349 377.377 44.2809 376.776 43.9729C376.174 43.6649 375.727 43.2542 375.434 42.7409C375.14 42.2276 374.994 41.6702 374.994 41.0689C374.994 39.9542 375.419 39.0962 376.27 38.4949C377.12 37.8936 378.279 37.5929 379.746 37.5929H382.694V37.4609C382.694 36.5076 382.444 35.7889 381.946 35.3049C381.447 34.8062 380.78 34.5569 379.944 34.5569C379.225 34.5569 378.602 34.7402 378.074 35.1069C377.56 35.4589 377.238 35.9796 377.106 36.6689H375.214C375.287 35.8769 375.551 35.2096 376.006 34.6669C376.475 34.1242 377.054 33.7136 377.744 33.4349C378.433 33.1416 379.166 32.9949 379.944 32.9949C381.469 32.9949 382.613 33.4056 383.376 34.2269C384.153 35.0336 384.542 36.1116 384.542 37.4609V44.1709H382.892L382.782 42.2129C382.474 42.8289 382.019 43.3569 381.418 43.7969C380.831 44.2222 380.039 44.4349 379.042 44.4349ZM379.328 42.8729C380.032 42.8729 380.633 42.6896 381.132 42.3229C381.645 41.9562 382.034 41.4796 382.298 40.8929C382.562 40.3062 382.694 39.6902 382.694 39.0449V39.0229H379.9C378.814 39.0229 378.044 39.2136 377.59 39.5949C377.15 39.9616 376.93 40.4236 376.93 40.9809C376.93 41.5529 377.135 42.0149 377.546 42.3669C377.971 42.7042 378.565 42.8729 379.328 42.8729ZM387.314 44.1709V33.2589H388.986L389.14 35.3489C389.477 34.6302 389.991 34.0582 390.68 33.6329C391.369 33.2076 392.22 32.9949 393.232 32.9949V34.9309H392.726C392.081 34.9309 391.487 35.0482 390.944 35.2829C390.401 35.5029 389.969 35.8842 389.646 36.4269C389.323 36.9696 389.162 37.7176 389.162 38.6709V44.1709H387.314ZM395.306 44.1709V28.3309H397.154V44.1709H395.306ZM401.371 49.0109L404.077 43.1149H403.439L399.105 33.2589H401.107L404.715 41.7509L408.543 33.2589H410.457L403.307 49.0109H401.371ZM423.246 44.4349C422.117 44.4349 421.134 44.2296 420.298 43.8189C419.462 43.4082 418.817 42.8362 418.362 42.1029C417.907 41.3696 417.68 40.5189 417.68 39.5509H419.616C419.616 40.1522 419.755 40.7096 420.034 41.2229C420.313 41.7216 420.716 42.1249 421.244 42.4329C421.787 42.7262 422.454 42.8729 423.246 42.8729C424.287 42.8729 425.094 42.6236 425.666 42.1249C426.238 41.6262 426.524 41.0029 426.524 40.2549C426.524 39.6389 426.392 39.1476 426.128 38.7809C425.864 38.3996 425.505 38.0916 425.05 37.8569C424.61 37.6222 424.097 37.4169 423.51 37.2409C422.938 37.0649 422.337 36.8669 421.706 36.6469C420.518 36.2362 419.638 35.7302 419.066 35.1289C418.494 34.5129 418.208 33.7136 418.208 32.7309C418.193 31.9096 418.384 31.1836 418.78 30.5529C419.176 29.9076 419.733 29.4089 420.452 29.0569C421.185 28.6902 422.051 28.5069 423.048 28.5069C424.031 28.5069 424.881 28.6902 425.6 29.0569C426.333 29.4236 426.898 29.9296 427.294 30.5749C427.705 31.2202 427.917 31.9536 427.932 32.7749H425.996C425.996 32.3496 425.886 31.9316 425.666 31.5209C425.446 31.0956 425.109 30.7509 424.654 30.4869C424.214 30.2229 423.657 30.0909 422.982 30.0909C422.146 30.0762 421.457 30.2889 420.914 30.7289C420.386 31.1689 420.122 31.7776 420.122 32.5549C420.122 33.2149 420.305 33.7209 420.672 34.0729C421.053 34.4249 421.581 34.7182 422.256 34.9529C422.931 35.1729 423.708 35.4296 424.588 35.7229C425.321 35.9869 425.981 36.2949 426.568 36.6469C427.155 36.9989 427.609 37.4536 427.932 38.0109C428.269 38.5682 428.438 39.2796 428.438 40.1449C428.438 40.8782 428.247 41.5749 427.866 42.2349C427.485 42.8802 426.905 43.4082 426.128 43.8189C425.365 44.2296 424.405 44.4349 423.246 44.4349ZM434.931 44.4349C433.64 44.4349 432.613 44.0462 431.851 43.2689C431.088 42.4769 430.707 41.2669 430.707 39.6389V33.2589H432.555V39.4409C432.555 41.7142 433.486 42.8509 435.349 42.8509C436.302 42.8509 437.087 42.5136 437.703 41.8389C438.333 41.1496 438.649 40.1742 438.649 38.9129V33.2589H440.497V44.1709H438.825L438.693 42.2129C438.355 42.9022 437.849 43.4449 437.175 43.8409C436.515 44.2369 435.767 44.4349 434.931 44.4349ZM449.369 44.4349C448.474 44.4349 447.675 44.2516 446.971 43.8849C446.281 43.5182 445.753 43.0049 445.387 42.3449L445.211 44.1709H443.539V28.3309H445.387V35.0629C445.739 34.5349 446.237 34.0582 446.883 33.6329C447.543 33.2076 448.379 32.9949 449.391 32.9949C450.476 32.9949 451.422 33.2442 452.229 33.7429C453.035 34.2416 453.659 34.9236 454.099 35.7889C454.553 36.6542 454.781 37.6369 454.781 38.7369C454.781 39.8369 454.553 40.8196 454.099 41.6849C453.659 42.5356 453.028 43.2102 452.207 43.7089C451.4 44.1929 450.454 44.4349 449.369 44.4349ZM449.171 42.8289C449.904 42.8289 450.549 42.6602 451.107 42.3229C451.664 41.9709 452.104 41.4869 452.427 40.8709C452.749 40.2549 452.911 39.5362 452.911 38.7149C452.911 37.8936 452.749 37.1749 452.427 36.5589C452.104 35.9429 451.664 35.4662 451.107 35.1289C450.549 34.7769 449.904 34.6009 449.171 34.6009C448.437 34.6009 447.792 34.7769 447.235 35.1289C446.677 35.4662 446.237 35.9429 445.915 36.5589C445.592 37.1749 445.431 37.8936 445.431 38.7149C445.431 39.5362 445.592 40.2549 445.915 40.8709C446.237 41.4869 446.677 41.9709 447.235 42.3229C447.792 42.6602 448.437 42.8289 449.171 42.8289ZM461.533 44.4349C460.228 44.4349 459.142 44.1049 458.277 43.4449C457.412 42.7849 456.906 41.8902 456.759 40.7609H458.651C458.768 41.3329 459.069 41.8316 459.553 42.2569C460.052 42.6676 460.719 42.8729 461.555 42.8729C462.332 42.8729 462.904 42.7116 463.271 42.3889C463.638 42.0516 463.821 41.6556 463.821 41.2009C463.821 40.5409 463.579 40.1009 463.095 39.8809C462.626 39.6609 461.958 39.4629 461.093 39.2869C460.506 39.1696 459.92 39.0009 459.333 38.7809C458.746 38.5609 458.255 38.2529 457.859 37.8569C457.463 37.4462 457.265 36.9109 457.265 36.2509C457.265 35.2976 457.617 34.5202 458.321 33.9189C459.04 33.3029 460.008 32.9949 461.225 32.9949C462.384 32.9949 463.33 33.2882 464.063 33.8749C464.811 34.4469 465.244 35.2682 465.361 36.3389H463.535C463.462 35.7816 463.22 35.3489 462.809 35.0409C462.413 34.7182 461.878 34.5569 461.203 34.5569C460.543 34.5569 460.03 34.6962 459.663 34.9749C459.311 35.2536 459.135 35.6202 459.135 36.0749C459.135 36.5149 459.362 36.8596 459.817 37.1089C460.286 37.3582 460.917 37.5709 461.709 37.7469C462.384 37.8936 463.022 38.0769 463.623 38.2969C464.239 38.5022 464.738 38.8176 465.119 39.2429C465.515 39.6536 465.713 40.2549 465.713 41.0469C465.728 42.0296 465.354 42.8436 464.591 43.4889C463.843 44.1196 462.824 44.4349 461.533 44.4349ZM473.369 44.4349C472.328 44.4349 471.389 44.2002 470.553 43.7309C469.732 43.2469 469.079 42.5796 468.595 41.7289C468.126 40.8636 467.891 39.8589 467.891 38.7149C467.891 37.5709 468.126 36.5736 468.595 35.7229C469.079 34.8576 469.732 34.1902 470.553 33.7209C471.389 33.2369 472.328 32.9949 473.369 32.9949C474.66 32.9949 475.745 33.3322 476.625 34.0069C477.52 34.6816 478.084 35.5836 478.319 36.7129H476.427C476.28 36.0382 475.921 35.5176 475.349 35.1509C474.777 34.7696 474.11 34.5789 473.347 34.5789C472.731 34.5789 472.152 34.7329 471.609 35.0409C471.066 35.3489 470.626 35.8109 470.289 36.4269C469.952 37.0429 469.783 37.8056 469.783 38.7149C469.783 39.6242 469.952 40.3869 470.289 41.0029C470.626 41.6189 471.066 42.0882 471.609 42.4109C472.152 42.7189 472.731 42.8729 473.347 42.8729C474.11 42.8729 474.777 42.6896 475.349 42.3229C475.921 41.9416 476.28 41.4062 476.427 40.7169H478.319C478.099 41.8169 477.542 42.7116 476.647 43.4009C475.752 44.0902 474.66 44.4349 473.369 44.4349ZM480.9 44.1709V33.2589H482.572L482.726 35.3489C483.063 34.6302 483.577 34.0582 484.266 33.6329C484.955 33.2076 485.806 32.9949 486.818 32.9949V34.9309H486.312C485.667 34.9309 485.073 35.0482 484.53 35.2829C483.987 35.5029 483.555 35.8842 483.232 36.4269C482.909 36.9696 482.748 37.7176 482.748 38.6709V44.1709H480.9ZM490.014 30.8389C489.647 30.8389 489.339 30.7216 489.09 30.4869C488.855 30.2376 488.738 29.9296 488.738 29.5629C488.738 29.2109 488.855 28.9176 489.09 28.6829C489.339 28.4482 489.647 28.3309 490.014 28.3309C490.366 28.3309 490.667 28.4482 490.916 28.6829C491.165 28.9176 491.29 29.2109 491.29 29.5629C491.29 29.9296 491.165 30.2376 490.916 30.4869C490.667 30.7216 490.366 30.8389 490.014 30.8389ZM489.09 44.1709V33.2589H490.938V44.1709H489.09ZM494.156 49.0109V33.2589H495.828L496.004 35.0629C496.356 34.5349 496.854 34.0582 497.5 33.6329C498.16 33.2076 498.996 32.9949 500.008 32.9949C501.093 32.9949 502.039 33.2442 502.846 33.7429C503.652 34.2416 504.276 34.9236 504.716 35.7889C505.17 36.6542 505.398 37.6369 505.398 38.7369C505.398 39.8369 505.17 40.8196 504.716 41.6849C504.276 42.5356 503.645 43.2102 502.824 43.7089C502.017 44.1929 501.071 44.4349 499.986 44.4349C499.091 44.4349 498.292 44.2516 497.588 43.8849C496.898 43.5182 496.37 43.0049 496.004 42.3449V49.0109H494.156ZM499.788 42.8289C500.521 42.8289 501.166 42.6602 501.724 42.3229C502.281 41.9709 502.721 41.4869 503.044 40.8709C503.366 40.2549 503.528 39.5362 503.528 38.7149C503.528 37.8936 503.366 37.1749 503.044 36.5589C502.721 35.9429 502.281 35.4662 501.724 35.1289C501.166 34.7769 500.521 34.6009 499.788 34.6009C499.054 34.6009 498.409 34.7769 497.852 35.1289C497.294 35.4662 496.854 35.9429 496.532 36.5589C496.209 37.1749 496.048 37.8936 496.048 38.7149C496.048 39.5362 496.209 40.2549 496.532 40.8709C496.854 41.4869 497.294 41.9709 497.852 42.3229C498.409 42.6602 499.054 42.8289 499.788 42.8289ZM511.852 44.1709C510.855 44.1709 510.07 43.9289 509.498 43.4449C508.926 42.9609 508.64 42.0882 508.64 40.8269V34.8209H506.748V33.2589H508.64L508.882 30.6409H510.488V33.2589H513.7V34.8209H510.488V40.8269C510.488 41.5162 510.628 41.9856 510.906 42.2349C511.185 42.4696 511.676 42.5869 512.38 42.5869H513.524V44.1709H511.852ZM517.17 30.8389C516.804 30.8389 516.496 30.7216 516.246 30.4869C516.012 30.2376 515.894 29.9296 515.894 29.5629C515.894 29.2109 516.012 28.9176 516.246 28.6829C516.496 28.4482 516.804 28.3309 517.17 28.3309C517.522 28.3309 517.823 28.4482 518.072 28.6829C518.322 28.9176 518.446 29.2109 518.446 29.5629C518.446 29.9296 518.322 30.2376 518.072 30.4869C517.823 30.7216 517.522 30.8389 517.17 30.8389ZM516.246 44.1709V33.2589H518.094V44.1709H516.246ZM526.284 44.4349C525.257 44.4349 524.333 44.2002 523.512 43.7309C522.691 43.2616 522.038 42.6016 521.554 41.7509C521.085 40.8856 520.85 39.8736 520.85 38.7149C520.85 37.5562 521.092 36.5516 521.576 35.7009C522.06 34.8356 522.713 34.1682 523.534 33.6989C524.37 33.2296 525.301 32.9949 526.328 32.9949C527.355 32.9949 528.279 33.2296 529.1 33.6989C529.921 34.1682 530.567 34.8356 531.036 35.7009C531.52 36.5516 531.762 37.5562 531.762 38.7149C531.762 39.8736 531.52 40.8856 531.036 41.7509C530.552 42.6016 529.892 43.2616 529.056 43.7309C528.235 44.2002 527.311 44.4349 526.284 44.4349ZM526.284 42.8509C526.915 42.8509 527.501 42.6969 528.044 42.3889C528.587 42.0809 529.027 41.6189 529.364 41.0029C529.701 40.3869 529.87 39.6242 529.87 38.7149C529.87 37.8056 529.701 37.0429 529.364 36.4269C529.041 35.8109 528.609 35.3489 528.066 35.0409C527.523 34.7329 526.944 34.5789 526.328 34.5789C525.697 34.5789 525.111 34.7329 524.568 35.0409C524.025 35.3489 523.585 35.8109 523.248 36.4269C522.911 37.0429 522.742 37.8056 522.742 38.7149C522.742 39.6242 522.911 40.3869 523.248 41.0029C523.585 41.6189 524.018 42.0809 524.546 42.3889C525.089 42.6969 525.668 42.8509 526.284 42.8509ZM534.331 44.1709V33.2589H536.003L536.113 35.2169C536.465 34.5276 536.971 33.9849 537.631 33.5889C538.291 33.1929 539.039 32.9949 539.875 32.9949C541.166 32.9949 542.193 33.3909 542.955 34.1829C543.733 34.9602 544.121 36.1629 544.121 37.7909V44.1709H542.273V37.9889C542.273 35.7156 541.335 34.5789 539.457 34.5789C538.519 34.5789 537.734 34.9236 537.103 35.6129C536.487 36.2876 536.179 37.2556 536.179 38.5169V44.1709H534.331ZM558.244 44.4349C557.114 44.4349 556.139 44.2369 555.318 43.8409C554.511 43.4449 553.873 42.9022 553.404 42.2129C552.949 41.5089 552.685 40.7169 552.612 39.8369H555.362C555.494 40.4676 555.816 40.9956 556.33 41.4209C556.843 41.8316 557.481 42.0369 558.244 42.0369C559.065 42.0369 559.732 41.7362 560.246 41.1349C560.774 40.5336 561.038 39.7856 561.038 38.8909C561.038 37.9669 560.774 37.2336 560.246 36.6909C559.732 36.1482 559.08 35.8769 558.288 35.8769C557.628 35.8769 557.056 36.0382 556.572 36.3609C556.088 36.6836 555.743 37.0869 555.538 37.5709H552.832L554.152 28.7709H562.688V31.2349H556.264L555.56 34.7989C555.882 34.4469 556.322 34.1609 556.88 33.9409C557.437 33.7062 558.06 33.5889 558.75 33.5889C559.85 33.5889 560.766 33.8382 561.5 34.3369C562.233 34.8209 562.79 35.4662 563.172 36.2729C563.553 37.0649 563.744 37.9302 563.744 38.8689C563.744 39.9396 563.509 40.8929 563.04 41.7289C562.585 42.5649 561.94 43.2249 561.104 43.7089C560.282 44.1929 559.329 44.4349 558.244 44.4349ZM572.678 44.4349C571.255 44.4349 570.038 44.1049 569.026 43.4449C568.014 42.7702 567.229 41.8389 566.672 40.6509C566.129 39.4482 565.858 38.0549 565.858 36.4709C565.858 34.9016 566.129 33.5156 566.672 32.3129C567.229 31.1102 568.014 30.1789 569.026 29.5189C570.038 28.8442 571.255 28.5069 572.678 28.5069C574.101 28.5069 575.318 28.8442 576.33 29.5189C577.342 30.1789 578.119 31.1102 578.662 32.3129C579.219 33.5156 579.498 34.9016 579.498 36.4709C579.498 38.0549 579.219 39.4482 578.662 40.6509C578.119 41.8389 577.342 42.7702 576.33 43.4449C575.318 44.1049 574.101 44.4349 572.678 44.4349ZM572.678 41.9049C573.837 41.9049 574.783 41.4209 575.516 40.4529C576.249 39.4849 576.616 38.1576 576.616 36.4709C576.616 34.7842 576.249 33.4569 575.516 32.4889C574.783 31.5209 573.837 31.0369 572.678 31.0369C571.505 31.0369 570.551 31.5209 569.818 32.4889C569.099 33.4569 568.74 34.7842 568.74 36.4709C568.74 38.1576 569.099 39.4849 569.818 40.4529C570.551 41.4209 571.505 41.9049 572.678 41.9049ZM585.151 36.3389C584.447 36.3389 583.809 36.1849 583.237 35.8769C582.665 35.5542 582.211 35.0996 581.873 34.5129C581.536 33.9262 581.367 33.2296 581.367 32.4229C581.367 31.6162 581.536 30.9196 581.873 30.3329C582.211 29.7462 582.665 29.2989 583.237 28.9909C583.809 28.6682 584.455 28.5069 585.173 28.5069C585.877 28.5069 586.508 28.6682 587.065 28.9909C587.637 29.2989 588.092 29.7462 588.429 30.3329C588.767 30.9196 588.935 31.6162 588.935 32.4229C588.935 33.2296 588.767 33.9262 588.429 34.5129C588.092 35.0996 587.637 35.5542 587.065 35.8769C586.493 36.1849 585.855 36.3389 585.151 36.3389ZM584.315 44.1709L593.005 28.7709H595.755L587.065 44.1709H584.315ZM585.151 34.3809C585.577 34.3809 585.943 34.2196 586.251 33.8969C586.559 33.5596 586.713 33.0682 586.713 32.4229C586.713 31.7776 586.559 31.2862 586.251 30.9489C585.958 30.6116 585.591 30.4429 585.151 30.4429C584.711 30.4429 584.337 30.6116 584.029 30.9489C583.736 31.2862 583.589 31.7776 583.589 32.4229C583.589 33.0682 583.736 33.5596 584.029 33.8969C584.337 34.2196 584.711 34.3809 585.151 34.3809ZM595.007 44.4349C594.303 44.4349 593.665 44.2809 593.093 43.9729C592.521 43.6502 592.067 43.1956 591.729 42.6089C591.392 42.0222 591.223 41.3256 591.223 40.5189C591.223 39.7122 591.392 39.0229 591.729 38.4509C592.067 37.8642 592.521 37.4169 593.093 37.1089C593.665 36.7862 594.311 36.6249 595.029 36.6249C595.733 36.6249 596.364 36.7862 596.921 37.1089C597.493 37.4169 597.948 37.8642 598.285 38.4509C598.623 39.0229 598.791 39.7122 598.791 40.5189C598.791 41.3256 598.623 42.0222 598.285 42.6089C597.948 43.1956 597.493 43.6502 596.921 43.9729C596.364 44.2809 595.726 44.4349 595.007 44.4349ZM595.007 42.4769C595.447 42.4769 595.814 42.3156 596.107 41.9929C596.415 41.6556 596.569 41.1642 596.569 40.5189C596.569 39.8736 596.415 39.3822 596.107 39.0449C595.814 38.7076 595.447 38.5389 595.007 38.5389C594.567 38.5389 594.193 38.7076 593.885 39.0449C593.592 39.3822 593.445 39.8736 593.445 40.5189C593.445 41.1642 593.592 41.6556 593.885 41.9929C594.193 42.3156 594.567 42.4769 595.007 42.4769ZM611.581 44.4349C610.525 44.4349 609.572 44.1929 608.721 43.7089C607.885 43.2249 607.218 42.5576 606.719 41.7069C606.235 40.8416 605.993 39.8442 605.993 38.7149C605.993 37.5856 606.242 36.5956 606.741 35.7449C607.24 34.8796 607.907 34.2049 608.743 33.7209C609.594 33.2369 610.547 32.9949 611.603 32.9949C612.644 32.9949 613.583 33.2369 614.419 33.7209C615.27 34.2049 615.937 34.8796 616.421 35.7449C616.92 36.5956 617.169 37.5856 617.169 38.7149C617.169 39.8442 616.92 40.8416 616.421 41.7069C615.937 42.5576 615.27 43.2249 614.419 43.7089C613.568 44.1929 612.622 44.4349 611.581 44.4349ZM611.581 41.9929C612.314 41.9929 612.952 41.7216 613.495 41.1789C614.038 40.6216 614.309 39.8002 614.309 38.7149C614.309 37.6296 614.038 36.8156 613.495 36.2729C612.952 35.7156 612.322 35.4369 611.603 35.4369C610.855 35.4369 610.21 35.7156 609.667 36.2729C609.139 36.8156 608.875 37.6296 608.875 38.7149C608.875 39.8002 609.139 40.6216 609.667 41.1789C610.21 41.7216 610.848 41.9929 611.581 41.9929ZM620.193 44.1709V35.6129H618.697V33.2589H620.193V31.9829C620.193 30.6629 620.523 29.7242 621.183 29.1669C621.858 28.6096 622.767 28.3309 623.911 28.3309H625.121V30.7289H624.351C623.867 30.7289 623.522 30.8242 623.317 31.0149C623.112 31.2056 623.009 31.5282 623.009 31.9829V33.2589H625.363V35.6129H623.009V44.1709H620.193ZM628.099 44.1709V35.6129H626.603V33.2589H628.099V31.9829C628.099 30.6629 628.429 29.7242 629.089 29.1669C629.764 28.6096 630.673 28.3309 631.817 28.3309H633.027V30.7289H632.257C631.773 30.7289 631.428 30.8242 631.223 31.0149C631.018 31.2056 630.915 31.5282 630.915 31.9829V33.2589H633.269V35.6129H630.915V44.1709H628.099Z" fill="#29B64E"/>
</svg>
