<svg width="335" height="108" viewBox="0 0 335 108" fill="none" xmlns="http://www.w3.org/2000/svg">
<rect width="335" height="107.2" transform="translate(0 0.09375)" fill="#29B64E"/>
<path d="M74.0015 38.2158L69.8435 22.7938H72.3515L75.4095 35.5538L78.9295 22.7938H81.5035L84.9135 35.5538L87.9715 22.7938H90.4795L86.2555 38.1938H83.5275L80.1615 26.1158L76.6855 38.1938L74.0015 38.2158ZM96.4525 38.4578C95.3818 38.4578 94.4285 38.2232 93.5925 37.7538C92.7711 37.2698 92.1258 36.6025 91.6565 35.7518C91.1871 34.9012 90.9525 33.9112 90.9525 32.7818C90.9525 31.6378 91.1798 30.6332 91.6345 29.7678C92.1038 28.9025 92.7491 28.2278 93.5705 27.7438C94.4065 27.2598 95.3745 27.0178 96.4745 27.0178C97.5451 27.0178 98.4765 27.2598 99.2685 27.7438C100.06 28.2132 100.676 28.8438 101.116 29.6358C101.556 30.4278 101.776 31.3005 101.776 32.2538C101.776 32.4005 101.769 32.5618 101.754 32.7378C101.754 32.8992 101.747 33.0825 101.732 33.2878H93.2405C93.3138 34.3438 93.6585 35.1505 94.2745 35.7078C94.9051 36.2505 95.6311 36.5218 96.4525 36.5218C97.1125 36.5218 97.6625 36.3752 98.1025 36.0818C98.5571 35.7738 98.8945 35.3632 99.1145 34.8498H101.446C101.153 35.8765 100.566 36.7345 99.6865 37.4238C98.8211 38.1132 97.7431 38.4578 96.4525 38.4578ZM96.4525 28.9318C95.6751 28.9318 94.9858 29.1665 94.3845 29.6358C93.7831 30.0905 93.4165 30.7798 93.2845 31.7038H99.4445C99.4005 30.8532 99.0998 30.1785 98.5425 29.6798C97.9851 29.1812 97.2885 28.9318 96.4525 28.9318ZM113.347 38.4578C112.423 38.4578 111.66 38.3038 111.059 37.9958C110.458 37.6878 110.01 37.2845 109.717 36.7858C109.424 36.2725 109.277 35.7152 109.277 35.1138C109.277 34.0578 109.688 33.2218 110.509 32.6058C111.33 31.9898 112.504 31.6818 114.029 31.6818H116.889V31.4838C116.889 30.6332 116.654 29.9952 116.185 29.5698C115.73 29.1445 115.136 28.9318 114.403 28.9318C113.758 28.9318 113.193 29.0932 112.709 29.4158C112.24 29.7238 111.954 30.1858 111.851 30.8018H109.519C109.592 30.0098 109.856 29.3352 110.311 28.7778C110.78 28.2058 111.367 27.7732 112.071 27.4798C112.79 27.1718 113.574 27.0178 114.425 27.0178C115.95 27.0178 117.131 27.4212 117.967 28.2278C118.803 29.0198 119.221 30.1052 119.221 31.4838V38.1938H117.197L116.999 36.3238C116.691 36.9252 116.244 37.4312 115.657 37.8418C115.07 38.2525 114.3 38.4578 113.347 38.4578ZM113.809 36.5658C114.44 36.5658 114.968 36.4192 115.393 36.1258C115.833 35.8178 116.17 35.4145 116.405 34.9158C116.654 34.4172 116.808 33.8672 116.867 33.2658H114.271C113.347 33.2658 112.687 33.4272 112.291 33.7498C111.91 34.0725 111.719 34.4758 111.719 34.9598C111.719 35.4585 111.902 35.8545 112.269 36.1478C112.65 36.4265 113.164 36.5658 113.809 36.5658ZM121.896 38.1938V27.2818H123.986L124.184 29.3498C124.565 28.6312 125.093 28.0665 125.768 27.6558C126.457 27.2305 127.286 27.0178 128.254 27.0178V29.4598H127.616C126.971 29.4598 126.391 29.5698 125.878 29.7898C125.379 29.9952 124.976 30.3545 124.668 30.8678C124.375 31.3665 124.228 32.0632 124.228 32.9578V38.1938H121.896ZM135.013 38.4578C133.942 38.4578 132.989 38.2232 132.153 37.7538C131.331 37.2698 130.686 36.6025 130.217 35.7518C129.747 34.9012 129.513 33.9112 129.513 32.7818C129.513 31.6378 129.74 30.6332 130.195 29.7678C130.664 28.9025 131.309 28.2278 132.131 27.7438C132.967 27.2598 133.935 27.0178 135.035 27.0178C136.105 27.0178 137.037 27.2598 137.829 27.7438C138.621 28.2132 139.237 28.8438 139.677 29.6358C140.117 30.4278 140.337 31.3005 140.337 32.2538C140.337 32.4005 140.329 32.5618 140.315 32.7378C140.315 32.8992 140.307 33.0825 140.293 33.2878H131.801C131.874 34.3438 132.219 35.1505 132.835 35.7078C133.465 36.2505 134.191 36.5218 135.013 36.5218C135.673 36.5218 136.223 36.3752 136.663 36.0818C137.117 35.7738 137.455 35.3632 137.675 34.8498H140.007C139.713 35.8765 139.127 36.7345 138.247 37.4238C137.381 38.1132 136.303 38.4578 135.013 38.4578ZM135.013 28.9318C134.235 28.9318 133.546 29.1665 132.945 29.6358C132.343 30.0905 131.977 30.7798 131.845 31.7038H138.005C137.961 30.8532 137.66 30.1785 137.103 29.6798C136.545 29.1812 135.849 28.9318 135.013 28.9318ZM149.531 25.2138C149.091 25.2138 148.725 25.0818 148.431 24.8178C148.153 24.5392 148.013 24.1945 148.013 23.7838C148.013 23.3732 148.153 23.0358 148.431 22.7718C148.725 22.4932 149.091 22.3538 149.531 22.3538C149.971 22.3538 150.331 22.4932 150.609 22.7718C150.903 23.0358 151.049 23.3732 151.049 23.7838C151.049 24.1945 150.903 24.5392 150.609 24.8178C150.331 25.0818 149.971 25.2138 149.531 25.2138ZM148.365 38.1938V27.2818H150.697V38.1938H148.365ZM153.732 38.1938V27.2818H155.8L155.976 29.1958C156.313 28.5212 156.805 27.9932 157.45 27.6118C158.11 27.2158 158.865 27.0178 159.716 27.0178C161.036 27.0178 162.07 27.4285 162.818 28.2498C163.581 29.0712 163.962 30.2958 163.962 31.9238V38.1938H161.652V32.1658C161.652 30.0538 160.787 28.9978 159.056 28.9978C158.191 28.9978 157.472 29.3058 156.9 29.9218C156.343 30.5378 156.064 31.4178 156.064 32.5618V38.1938H153.732ZM171.24 38.1938C170.17 38.1938 169.319 37.9372 168.688 37.4238C168.058 36.8958 167.742 35.9645 167.742 34.6298V29.2398H165.872V27.2818H167.742L168.028 24.5098H170.074V27.2818H173.154V29.2398H170.074V34.6298C170.074 35.2312 170.199 35.6492 170.448 35.8838C170.712 36.1038 171.16 36.2138 171.79 36.2138H173.044V38.1938H171.24ZM175.515 38.1938V27.2818H177.605L177.803 29.3498C178.184 28.6312 178.712 28.0665 179.387 27.6558C180.076 27.2305 180.905 27.0178 181.873 27.0178V29.4598H181.235C180.59 29.4598 180.01 29.5698 179.497 29.7898C178.998 29.9952 178.595 30.3545 178.287 30.8678C177.994 31.3665 177.847 32.0632 177.847 32.9578V38.1938H175.515ZM188.632 38.4578C187.59 38.4578 186.652 38.2232 185.816 37.7538C184.994 37.2698 184.342 36.6025 183.858 35.7518C183.374 34.8865 183.132 33.8818 183.132 32.7378C183.132 31.5938 183.374 30.5965 183.858 29.7458C184.356 28.8805 185.024 28.2132 185.86 27.7438C186.696 27.2598 187.627 27.0178 188.654 27.0178C189.695 27.0178 190.626 27.2598 191.448 27.7438C192.284 28.2132 192.944 28.8805 193.428 29.7458C193.926 30.5965 194.176 31.5938 194.176 32.7378C194.176 33.8818 193.926 34.8865 193.428 35.7518C192.944 36.6025 192.284 37.2698 191.448 37.7538C190.612 38.2232 189.673 38.4578 188.632 38.4578ZM188.632 36.4558C189.189 36.4558 189.702 36.3165 190.172 36.0378C190.656 35.7592 191.044 35.3485 191.338 34.8058C191.631 34.2485 191.778 33.5592 191.778 32.7378C191.778 31.9165 191.631 31.2345 191.338 30.6918C191.059 30.1345 190.678 29.7165 190.194 29.4378C189.724 29.1592 189.211 29.0198 188.654 29.0198C188.096 29.0198 187.576 29.1592 187.092 29.4378C186.622 29.7165 186.241 30.1345 185.948 30.6918C185.654 31.2345 185.508 31.9165 185.508 32.7378C185.508 33.5592 185.654 34.2485 185.948 34.8058C186.241 35.3485 186.622 35.7592 187.092 36.0378C187.561 36.3165 188.074 36.4558 188.632 36.4558ZM201.626 38.4578C200.57 38.4578 199.638 38.2085 198.832 37.7098C198.025 37.2112 197.394 36.5292 196.94 35.6638C196.485 34.7985 196.258 33.8158 196.258 32.7158C196.258 31.6158 196.485 30.6405 196.94 29.7898C197.394 28.9245 198.025 28.2498 198.832 27.7658C199.653 27.2672 200.592 27.0178 201.648 27.0178C202.513 27.0178 203.268 27.1865 203.914 27.5238C204.574 27.8612 205.087 28.3378 205.454 28.9538V22.3538H207.786V38.1938H205.696L205.454 36.4998C205.102 37.0132 204.618 37.4678 204.002 37.8638C203.386 38.2598 202.594 38.4578 201.626 38.4578ZM202.044 36.4338C203.041 36.4338 203.855 36.0892 204.486 35.3998C205.131 34.7105 205.454 33.8232 205.454 32.7378C205.454 31.6378 205.131 30.7505 204.486 30.0758C203.855 29.3865 203.041 29.0418 202.044 29.0418C201.046 29.0418 200.225 29.3865 199.58 30.0758C198.934 30.7505 198.612 31.6378 198.612 32.7378C198.612 33.4565 198.758 34.0945 199.052 34.6518C199.345 35.2092 199.748 35.6492 200.262 35.9718C200.79 36.2798 201.384 36.4338 202.044 36.4338ZM214.708 38.4578C213.388 38.4578 212.346 38.0472 211.584 37.2258C210.836 36.4045 210.462 35.1798 210.462 33.5518V27.2818H212.794V33.3098C212.794 35.4218 213.659 36.4778 215.39 36.4778C216.255 36.4778 216.966 36.1698 217.524 35.5538C218.081 34.9378 218.36 34.0578 218.36 32.9138V27.2818H220.692V38.1938H218.624L218.448 36.2798C218.11 36.9545 217.612 37.4898 216.952 37.8858C216.306 38.2672 215.558 38.4578 214.708 38.4578ZM228.784 38.4578C227.714 38.4578 226.753 38.2158 225.902 37.7318C225.066 37.2478 224.406 36.5805 223.922 35.7298C223.453 34.8645 223.218 33.8672 223.218 32.7378C223.218 31.6085 223.453 30.6185 223.922 29.7678C224.406 28.9025 225.066 28.2278 225.902 27.7438C226.753 27.2598 227.714 27.0178 228.784 27.0178C230.134 27.0178 231.263 27.3698 232.172 28.0738C233.096 28.7778 233.69 29.7312 233.954 30.9338H231.512C231.366 30.3325 231.043 29.8632 230.544 29.5258C230.046 29.1885 229.459 29.0198 228.784 29.0198C228.212 29.0198 227.684 29.1665 227.2 29.4598C226.716 29.7385 226.328 30.1565 226.034 30.7138C225.741 31.2565 225.594 31.9312 225.594 32.7378C225.594 33.5445 225.741 34.2265 226.034 34.7838C226.328 35.3265 226.716 35.7445 227.2 36.0378C227.684 36.3312 228.212 36.4778 228.784 36.4778C229.459 36.4778 230.046 36.3092 230.544 35.9718C231.043 35.6345 231.366 35.1578 231.512 34.5418H233.954C233.705 35.7152 233.118 36.6612 232.194 37.3798C231.27 38.0985 230.134 38.4578 228.784 38.4578ZM237.759 25.2138C237.319 25.2138 236.953 25.0818 236.659 24.8178C236.381 24.5392 236.241 24.1945 236.241 23.7838C236.241 23.3732 236.381 23.0358 236.659 22.7718C236.953 22.4932 237.319 22.3538 237.759 22.3538C238.199 22.3538 238.559 22.4932 238.837 22.7718C239.131 23.0358 239.277 23.3732 239.277 23.7838C239.277 24.1945 239.131 24.5392 238.837 24.8178C238.559 25.0818 238.199 25.2138 237.759 25.2138ZM236.593 38.1938V27.2818H238.925V38.1938H236.593ZM241.96 38.1938V27.2818H244.028L244.204 29.1958C244.541 28.5212 245.033 27.9932 245.678 27.6118C246.338 27.2158 247.093 27.0178 247.944 27.0178C249.264 27.0178 250.298 27.4285 251.046 28.2498C251.809 29.0712 252.19 30.2958 252.19 31.9238V38.1938H249.88V32.1658C249.88 30.0538 249.015 28.9978 247.284 28.9978C246.419 28.9978 245.7 29.3058 245.128 29.9218C244.571 30.5378 244.292 31.4178 244.292 32.5618V38.1938H241.96ZM259.359 34.8498C258.787 34.8498 258.259 34.7838 257.775 34.6518L256.829 35.5758C256.99 35.6785 257.188 35.7665 257.423 35.8398C257.657 35.9132 257.987 35.9792 258.413 36.0378C258.838 36.0965 259.417 36.1552 260.151 36.2138C261.603 36.3458 262.651 36.6978 263.297 37.2698C263.942 37.8272 264.265 38.5752 264.265 39.5138C264.265 40.1592 264.089 40.7678 263.737 41.3398C263.399 41.9265 262.864 42.3958 262.131 42.7478C261.412 43.1145 260.488 43.2978 259.359 43.2978C257.833 43.2978 256.594 43.0045 255.641 42.4178C254.702 41.8458 254.233 40.9732 254.233 39.7998C254.233 39.3452 254.35 38.8905 254.585 38.4358C254.834 37.9958 255.223 37.5778 255.751 37.1818C255.443 37.0498 255.171 36.9105 254.937 36.7638C254.717 36.6025 254.519 36.4412 254.343 36.2798V35.7518L256.235 33.8158C255.384 33.0825 254.959 32.1218 254.959 30.9338C254.959 30.2152 255.127 29.5625 255.465 28.9758C255.817 28.3745 256.323 27.8978 256.983 27.5458C257.643 27.1938 258.435 27.0178 259.359 27.0178C259.975 27.0178 260.547 27.1058 261.075 27.2818H265.145V28.8218L263.209 28.9318C263.561 29.5332 263.737 30.2005 263.737 30.9338C263.737 31.6672 263.561 32.3272 263.209 32.9138C262.871 33.5005 262.373 33.9698 261.713 34.3218C261.067 34.6738 260.283 34.8498 259.359 34.8498ZM259.359 33.0238C260.033 33.0238 260.576 32.8478 260.987 32.4958C261.412 32.1292 261.625 31.6158 261.625 30.9558C261.625 30.2812 261.412 29.7678 260.987 29.4158C260.576 29.0638 260.033 28.8878 259.359 28.8878C258.669 28.8878 258.112 29.0638 257.687 29.4158C257.276 29.7678 257.071 30.2812 257.071 30.9558C257.071 31.6158 257.276 32.1292 257.687 32.4958C258.112 32.8478 258.669 33.0238 259.359 33.0238ZM256.433 39.5798C256.433 40.2105 256.711 40.6798 257.269 40.9878C257.826 41.3105 258.523 41.4718 259.359 41.4718C260.165 41.4718 260.818 41.2958 261.317 40.9438C261.815 40.6065 262.065 40.1518 262.065 39.5798C262.065 39.1545 261.896 38.7878 261.559 38.4798C261.221 38.1865 260.583 38.0032 259.645 37.9298C258.941 37.8858 258.317 37.8198 257.775 37.7318C257.261 38.0105 256.909 38.3112 256.719 38.6338C256.528 38.9565 256.433 39.2718 256.433 39.5798ZM73.5653 71.4578C72.1867 71.4578 71.05 71.1205 70.1553 70.4458C69.2607 69.7712 68.7473 68.8765 68.6153 67.7618H70.9693C71.0867 68.2605 71.3653 68.6932 71.8053 69.0598C72.2453 69.4118 72.8247 69.5878 73.5433 69.5878C74.2473 69.5878 74.7607 69.4412 75.0833 69.1478C75.406 68.8545 75.5673 68.5172 75.5673 68.1358C75.5673 67.5785 75.34 67.2045 74.8853 67.0138C74.4453 66.8085 73.8293 66.6252 73.0373 66.4638C72.4213 66.3318 71.8053 66.1558 71.1893 65.9358C70.588 65.7158 70.082 65.4078 69.6713 65.0118C69.2753 64.6012 69.0773 64.0512 69.0773 63.3618C69.0773 62.4085 69.444 61.6165 70.1773 60.9858C70.9107 60.3405 71.9373 60.0178 73.2573 60.0178C74.4747 60.0178 75.4573 60.3112 76.2053 60.8978C76.968 61.4845 77.4153 62.3132 77.5473 63.3838H75.3033C75.23 62.9145 75.01 62.5478 74.6433 62.2838C74.2913 62.0198 73.8147 61.8878 73.2133 61.8878C72.6267 61.8878 72.172 62.0125 71.8493 62.2618C71.5267 62.4965 71.3653 62.8045 71.3653 63.1858C71.3653 63.5672 71.5853 63.8678 72.0253 64.0878C72.48 64.3078 73.074 64.5058 73.8073 64.6818C74.5407 64.8432 75.2153 65.0338 75.8313 65.2538C76.462 65.4592 76.968 65.7672 77.3493 66.1778C77.7307 66.5885 77.9213 67.1898 77.9213 67.9818C77.936 68.9792 77.5473 69.8078 76.7553 70.4678C75.978 71.1278 74.9147 71.4578 73.5653 71.4578ZM81.7431 58.2138C81.3031 58.2138 80.9365 58.0818 80.6431 57.8178C80.3645 57.5392 80.2251 57.1945 80.2251 56.7838C80.2251 56.3732 80.3645 56.0358 80.6431 55.7718C80.9365 55.4932 81.3031 55.3538 81.7431 55.3538C82.1831 55.3538 82.5425 55.4932 82.8211 55.7718C83.1145 56.0358 83.2611 56.3732 83.2611 56.7838C83.2611 57.1945 83.1145 57.5392 82.8211 57.8178C82.5425 58.0818 82.1831 58.2138 81.7431 58.2138ZM80.5771 71.1938V60.2818H82.9091V71.1938H80.5771ZM90.4096 67.8498C89.8376 67.8498 89.3096 67.7838 88.8256 67.6518L87.8796 68.5758C88.0409 68.6785 88.2389 68.7665 88.4736 68.8398C88.7083 68.9132 89.0383 68.9792 89.4636 69.0378C89.8889 69.0965 90.4683 69.1552 91.2016 69.2138C92.6536 69.3458 93.7023 69.6978 94.3476 70.2698C94.9929 70.8272 95.3156 71.5752 95.3156 72.5138C95.3156 73.1592 95.1396 73.7678 94.7876 74.3398C94.4503 74.9265 93.9149 75.3958 93.1816 75.7478C92.4629 76.1145 91.5389 76.2978 90.4096 76.2978C88.8843 76.2978 87.6449 76.0045 86.6916 75.4178C85.7529 74.8458 85.2836 73.9732 85.2836 72.7998C85.2836 72.3452 85.4009 71.8905 85.6356 71.4358C85.8849 70.9958 86.2736 70.5778 86.8016 70.1818C86.4936 70.0498 86.2223 69.9105 85.9876 69.7638C85.7676 69.6025 85.5696 69.4412 85.3936 69.2798V68.7518L87.2856 66.8158C86.4349 66.0825 86.0096 65.1218 86.0096 63.9338C86.0096 63.2152 86.1783 62.5625 86.5156 61.9758C86.8676 61.3745 87.3736 60.8978 88.0336 60.5458C88.6936 60.1938 89.4856 60.0178 90.4096 60.0178C91.0256 60.0178 91.5976 60.1058 92.1256 60.2818H96.1956V61.8218L94.2596 61.9318C94.6116 62.5332 94.7876 63.2005 94.7876 63.9338C94.7876 64.6672 94.6116 65.3272 94.2596 65.9138C93.9223 66.5005 93.4236 66.9698 92.7636 67.3218C92.1183 67.6738 91.3336 67.8498 90.4096 67.8498ZM90.4096 66.0238C91.0843 66.0238 91.6269 65.8478 92.0376 65.4958C92.4629 65.1292 92.6756 64.6158 92.6756 63.9558C92.6756 63.2812 92.4629 62.7678 92.0376 62.4158C91.6269 62.0638 91.0843 61.8878 90.4096 61.8878C89.7203 61.8878 89.1629 62.0638 88.7376 62.4158C88.3269 62.7678 88.1216 63.2812 88.1216 63.9558C88.1216 64.6158 88.3269 65.1292 88.7376 65.4958C89.1629 65.8478 89.7203 66.0238 90.4096 66.0238ZM87.4836 72.5798C87.4836 73.2105 87.7623 73.6798 88.3196 73.9878C88.8769 74.3105 89.5736 74.4718 90.4096 74.4718C91.2163 74.4718 91.8689 74.2958 92.3676 73.9438C92.8663 73.6065 93.1156 73.1518 93.1156 72.5798C93.1156 72.1545 92.9469 71.7878 92.6096 71.4798C92.2723 71.1865 91.6343 71.0032 90.6956 70.9298C89.9916 70.8858 89.3683 70.8198 88.8256 70.7318C88.3123 71.0105 87.9603 71.3112 87.7696 71.6338C87.5789 71.9565 87.4836 72.2718 87.4836 72.5798ZM98.2316 71.1938V60.2818H100.3L100.476 62.1958C100.813 61.5212 101.304 60.9932 101.95 60.6118C102.61 60.2158 103.365 60.0178 104.216 60.0178C105.536 60.0178 106.57 60.4285 107.318 61.2498C108.08 62.0712 108.462 63.2958 108.462 64.9238V71.1938H106.152V65.1658C106.152 63.0538 105.286 61.9978 103.556 61.9978C102.69 61.9978 101.972 62.3058 101.4 62.9218C100.842 63.5378 100.564 64.4178 100.564 65.5618V71.1938H98.2316ZM112.484 58.2138C112.044 58.2138 111.678 58.0818 111.384 57.8178C111.106 57.5392 110.966 57.1945 110.966 56.7838C110.966 56.3732 111.106 56.0358 111.384 55.7718C111.678 55.4932 112.044 55.3538 112.484 55.3538C112.924 55.3538 113.284 55.4932 113.562 55.7718C113.856 56.0358 114.002 56.3732 114.002 56.7838C114.002 57.1945 113.856 57.5392 113.562 57.8178C113.284 58.0818 112.924 58.2138 112.484 58.2138ZM111.318 71.1938V60.2818H113.65V71.1938H111.318ZM117.235 71.1938V62.2398H115.673V60.2818H117.235V58.6978C117.235 57.5098 117.528 56.6592 118.115 56.1458C118.716 55.6178 119.559 55.3538 120.645 55.3538H121.789V57.3338H120.997C120.483 57.3338 120.117 57.4438 119.897 57.6638C119.677 57.8692 119.567 58.2212 119.567 58.7198V60.2818H126.475V71.1938H124.143V62.2398H119.567V71.1938H117.235ZM125.331 58.4558C124.891 58.4558 124.524 58.3238 124.231 58.0598C123.952 57.7812 123.813 57.4292 123.813 57.0038C123.813 56.5932 123.952 56.2558 124.231 55.9918C124.524 55.7278 124.891 55.5958 125.331 55.5958C125.771 55.5958 126.13 55.7278 126.409 55.9918C126.702 56.2558 126.849 56.5932 126.849 57.0038C126.849 57.4292 126.702 57.7812 126.409 58.0598C126.13 58.3238 125.771 58.4558 125.331 58.4558ZM134.701 71.4578C133.631 71.4578 132.67 71.2158 131.819 70.7318C130.983 70.2478 130.323 69.5805 129.839 68.7298C129.37 67.8645 129.135 66.8672 129.135 65.7378C129.135 64.6085 129.37 63.6185 129.839 62.7678C130.323 61.9025 130.983 61.2278 131.819 60.7438C132.67 60.2598 133.631 60.0178 134.701 60.0178C136.051 60.0178 137.18 60.3698 138.089 61.0738C139.013 61.7778 139.607 62.7312 139.871 63.9338H137.429C137.283 63.3325 136.96 62.8632 136.461 62.5258C135.963 62.1885 135.376 62.0198 134.701 62.0198C134.129 62.0198 133.601 62.1665 133.117 62.4598C132.633 62.7385 132.245 63.1565 131.951 63.7138C131.658 64.2565 131.511 64.9312 131.511 65.7378C131.511 66.5445 131.658 67.2265 131.951 67.7838C132.245 68.3265 132.633 68.7445 133.117 69.0378C133.601 69.3312 134.129 69.4778 134.701 69.4778C135.376 69.4778 135.963 69.3092 136.461 68.9718C136.96 68.6345 137.283 68.1578 137.429 67.5418H139.871C139.622 68.7152 139.035 69.6612 138.111 70.3798C137.187 71.0985 136.051 71.4578 134.701 71.4578ZM146.052 71.4578C145.128 71.4578 144.366 71.3038 143.764 70.9958C143.163 70.6878 142.716 70.2845 142.422 69.7858C142.129 69.2725 141.982 68.7152 141.982 68.1138C141.982 67.0578 142.393 66.2218 143.214 65.6058C144.036 64.9898 145.209 64.6818 146.734 64.6818H149.594V64.4838C149.594 63.6332 149.36 62.9952 148.89 62.5698C148.436 62.1445 147.842 61.9318 147.108 61.9318C146.463 61.9318 145.898 62.0932 145.414 62.4158C144.945 62.7238 144.659 63.1858 144.556 63.8018H142.224C142.298 63.0098 142.562 62.3352 143.016 61.7778C143.486 61.2058 144.072 60.7732 144.776 60.4798C145.495 60.1718 146.28 60.0178 147.13 60.0178C148.656 60.0178 149.836 60.4212 150.672 61.2278C151.508 62.0198 151.926 63.1052 151.926 64.4838V71.1938H149.902L149.704 69.3238C149.396 69.9252 148.949 70.4312 148.362 70.8418C147.776 71.2525 147.006 71.4578 146.052 71.4578ZM146.514 69.5658C147.145 69.5658 147.673 69.4192 148.098 69.1258C148.538 68.8178 148.876 68.4145 149.11 67.9158C149.36 67.4172 149.514 66.8672 149.572 66.2658H146.976C146.052 66.2658 145.392 66.4272 144.996 66.7498C144.615 67.0725 144.424 67.4758 144.424 67.9598C144.424 68.4585 144.608 68.8545 144.974 69.1478C145.356 69.4265 145.869 69.5658 146.514 69.5658ZM154.601 71.1938V60.2818H156.669L156.845 62.1958C157.183 61.5212 157.674 60.9932 158.319 60.6118C158.979 60.2158 159.735 60.0178 160.585 60.0178C161.905 60.0178 162.939 60.4285 163.687 61.2498C164.45 62.0712 164.831 63.2958 164.831 64.9238V71.1938H162.521V65.1658C162.521 63.0538 161.656 61.9978 159.925 61.9978C159.06 61.9978 158.341 62.3058 157.769 62.9218C157.212 63.5378 156.933 64.4178 156.933 65.5618V71.1938H154.601ZM172.11 71.1938C171.039 71.1938 170.189 70.9372 169.558 70.4238C168.927 69.8958 168.612 68.9645 168.612 67.6298V62.2398H166.742V60.2818H168.612L168.898 57.5098H170.944V60.2818H174.024V62.2398H170.944V67.6298C170.944 68.2312 171.069 68.6492 171.318 68.8838C171.582 69.1038 172.029 69.2138 172.66 69.2138H173.914V71.1938H172.11ZM187.054 71.4578C185.983 71.4578 185.022 71.2158 184.172 70.7318C183.336 70.2478 182.676 69.5805 182.192 68.7298C181.722 67.8645 181.488 66.8672 181.488 65.7378C181.488 64.6085 181.722 63.6185 182.192 62.7678C182.676 61.9025 183.336 61.2278 184.172 60.7438C185.022 60.2598 185.983 60.0178 187.054 60.0178C188.403 60.0178 189.532 60.3698 190.442 61.0738C191.366 61.7778 191.96 62.7312 192.224 63.9338H189.782C189.635 63.3325 189.312 62.8632 188.814 62.5258C188.315 62.1885 187.728 62.0198 187.054 62.0198C186.482 62.0198 185.954 62.1665 185.47 62.4598C184.986 62.7385 184.597 63.1565 184.304 63.7138C184.01 64.2565 183.864 64.9312 183.864 65.7378C183.864 66.5445 184.01 67.2265 184.304 67.7838C184.597 68.3265 184.986 68.7445 185.47 69.0378C185.954 69.3312 186.482 69.4778 187.054 69.4778C187.728 69.4778 188.315 69.3092 188.814 68.9718C189.312 68.6345 189.635 68.1578 189.782 67.5418H192.224C191.974 68.7152 191.388 69.6612 190.464 70.3798C189.54 71.0985 188.403 71.4578 187.054 71.4578ZM194.709 71.1938V55.3538H197.041V62.0418C197.407 61.4112 197.913 60.9198 198.559 60.5678C199.219 60.2012 199.945 60.0178 200.737 60.0178C202.042 60.0178 203.069 60.4285 203.817 61.2498C204.565 62.0712 204.939 63.2958 204.939 64.9238V71.1938H202.629V65.1658C202.629 63.0538 201.785 61.9978 200.099 61.9978C199.219 61.9978 198.485 62.3058 197.899 62.9218C197.327 63.5378 197.041 64.4178 197.041 65.5618V71.1938H194.709ZM211.337 71.4578C210.413 71.4578 209.651 71.3038 209.049 70.9958C208.448 70.6878 208.001 70.2845 207.707 69.7858C207.414 69.2725 207.267 68.7152 207.267 68.1138C207.267 67.0578 207.678 66.2218 208.499 65.6058C209.321 64.9898 210.494 64.6818 212.019 64.6818H214.879V64.4838C214.879 63.6332 214.645 62.9952 214.175 62.5698C213.721 62.1445 213.127 61.9318 212.393 61.9318C211.748 61.9318 211.183 62.0932 210.699 62.4158C210.23 62.7238 209.944 63.1858 209.841 63.8018H207.509C207.583 63.0098 207.847 62.3352 208.301 61.7778C208.771 61.2058 209.357 60.7732 210.061 60.4798C210.78 60.1718 211.565 60.0178 212.415 60.0178C213.941 60.0178 215.121 60.4212 215.957 61.2278C216.793 62.0198 217.211 63.1052 217.211 64.4838V71.1938H215.187L214.989 69.3238C214.681 69.9252 214.234 70.4312 213.647 70.8418C213.061 71.2525 212.291 71.4578 211.337 71.4578ZM211.799 69.5658C212.43 69.5658 212.958 69.4192 213.383 69.1258C213.823 68.8178 214.161 68.4145 214.395 67.9158C214.645 67.4172 214.799 66.8672 214.857 66.2658H212.261C211.337 66.2658 210.677 66.4272 210.281 66.7498C209.9 67.0725 209.709 67.4758 209.709 67.9598C209.709 68.4585 209.893 68.8545 210.259 69.1478C210.641 69.4265 211.154 69.5658 211.799 69.5658ZM219.886 71.1938V60.2818H221.954L222.13 62.1958C222.468 61.5212 222.959 60.9932 223.604 60.6118C224.264 60.2158 225.02 60.0178 225.87 60.0178C227.19 60.0178 228.224 60.4285 228.972 61.2498C229.735 62.0712 230.116 63.2958 230.116 64.9238V71.1938H227.806V65.1658C227.806 63.0538 226.941 61.9978 225.21 61.9978C224.345 61.9978 223.626 62.3058 223.054 62.9218C222.497 63.5378 222.218 64.4178 222.218 65.5618V71.1938H219.886ZM237.285 67.8498C236.713 67.8498 236.185 67.7838 235.701 67.6518L234.755 68.5758C234.916 68.6785 235.114 68.7665 235.349 68.8398C235.584 68.9132 235.914 68.9792 236.339 69.0378C236.764 69.0965 237.344 69.1552 238.077 69.2138C239.529 69.3458 240.578 69.6978 241.223 70.2698C241.868 70.8272 242.191 71.5752 242.191 72.5138C242.191 73.1592 242.015 73.7678 241.663 74.3398C241.326 74.9265 240.79 75.3958 240.057 75.7478C239.338 76.1145 238.414 76.2978 237.285 76.2978C235.76 76.2978 234.52 76.0045 233.567 75.4178C232.628 74.8458 232.159 73.9732 232.159 72.7998C232.159 72.3452 232.276 71.8905 232.511 71.4358C232.76 70.9958 233.149 70.5778 233.677 70.1818C233.369 70.0498 233.098 69.9105 232.863 69.7638C232.643 69.6025 232.445 69.4412 232.269 69.2798V68.7518L234.161 66.8158C233.31 66.0825 232.885 65.1218 232.885 63.9338C232.885 63.2152 233.054 62.5625 233.391 61.9758C233.743 61.3745 234.249 60.8978 234.909 60.5458C235.569 60.1938 236.361 60.0178 237.285 60.0178C237.901 60.0178 238.473 60.1058 239.001 60.2818H243.071V61.8218L241.135 61.9318C241.487 62.5332 241.663 63.2005 241.663 63.9338C241.663 64.6672 241.487 65.3272 241.135 65.9138C240.798 66.5005 240.299 66.9698 239.639 67.3218C238.994 67.6738 238.209 67.8498 237.285 67.8498ZM237.285 66.0238C237.96 66.0238 238.502 65.8478 238.913 65.4958C239.338 65.1292 239.551 64.6158 239.551 63.9558C239.551 63.2812 239.338 62.7678 238.913 62.4158C238.502 62.0638 237.96 61.8878 237.285 61.8878C236.596 61.8878 236.038 62.0638 235.613 62.4158C235.202 62.7678 234.997 63.2812 234.997 63.9558C234.997 64.6158 235.202 65.1292 235.613 65.4958C236.038 65.8478 236.596 66.0238 237.285 66.0238ZM234.359 72.5798C234.359 73.2105 234.638 73.6798 235.195 73.9878C235.752 74.3105 236.449 74.4718 237.285 74.4718C238.092 74.4718 238.744 74.2958 239.243 73.9438C239.742 73.6065 239.991 73.1518 239.991 72.5798C239.991 72.1545 239.822 71.7878 239.485 71.4798C239.148 71.1865 238.51 71.0032 237.571 70.9298C236.867 70.8858 236.244 70.8198 235.701 70.7318C235.188 71.0105 234.836 71.3112 234.645 71.6338C234.454 71.9565 234.359 72.2718 234.359 72.5798ZM249.781 71.4578C248.711 71.4578 247.757 71.2232 246.921 70.7538C246.1 70.2698 245.455 69.6025 244.985 68.7518C244.516 67.9012 244.281 66.9112 244.281 65.7818C244.281 64.6378 244.509 63.6332 244.963 62.7678C245.433 61.9025 246.078 61.2278 246.899 60.7438C247.735 60.2598 248.703 60.0178 249.803 60.0178C250.874 60.0178 251.805 60.2598 252.597 60.7438C253.389 61.2132 254.005 61.8438 254.445 62.6358C254.885 63.4278 255.105 64.3005 255.105 65.2538C255.105 65.4005 255.098 65.5618 255.083 65.7378C255.083 65.8992 255.076 66.0825 255.061 66.2878H246.569C246.643 67.3438 246.987 68.1505 247.603 68.7078C248.234 69.2505 248.96 69.5218 249.781 69.5218C250.441 69.5218 250.991 69.3752 251.431 69.0818C251.886 68.7738 252.223 68.3632 252.443 67.8498H254.775C254.482 68.8765 253.895 69.7345 253.015 70.4238C252.15 71.1132 251.072 71.4578 249.781 71.4578ZM249.781 61.9318C249.004 61.9318 248.315 62.1665 247.713 62.6358C247.112 63.0905 246.745 63.7798 246.613 64.7038H252.773C252.729 63.8532 252.429 63.1785 251.871 62.6798C251.314 62.1812 250.617 61.9318 249.781 61.9318ZM261.837 71.4578C260.458 71.4578 259.322 71.1205 258.427 70.4458C257.532 69.7712 257.019 68.8765 256.887 67.7618H259.241C259.358 68.2605 259.637 68.6932 260.077 69.0598C260.517 69.4118 261.096 69.5878 261.815 69.5878C262.519 69.5878 263.032 69.4412 263.355 69.1478C263.678 68.8545 263.839 68.5172 263.839 68.1358C263.839 67.5785 263.612 67.2045 263.157 67.0138C262.717 66.8085 262.101 66.6252 261.309 66.4638C260.693 66.3318 260.077 66.1558 259.461 65.9358C258.86 65.7158 258.354 65.4078 257.943 65.0118C257.547 64.6012 257.349 64.0512 257.349 63.3618C257.349 62.4085 257.716 61.6165 258.449 60.9858C259.182 60.3405 260.209 60.0178 261.529 60.0178C262.746 60.0178 263.729 60.3112 264.477 60.8978C265.24 61.4845 265.687 62.3132 265.819 63.3838H263.575C263.502 62.9145 263.282 62.5478 262.915 62.2838C262.563 62.0198 262.086 61.8878 261.485 61.8878C260.898 61.8878 260.444 62.0125 260.121 62.2618C259.798 62.4965 259.637 62.8045 259.637 63.1858C259.637 63.5672 259.857 63.8678 260.297 64.0878C260.752 64.3078 261.346 64.5058 262.079 64.6818C262.812 64.8432 263.487 65.0338 264.103 65.2538C264.734 65.4592 265.24 65.7672 265.621 66.1778C266.002 66.5885 266.193 67.1898 266.193 67.9818C266.208 68.9792 265.819 69.8078 265.027 70.4678C264.25 71.1278 263.186 71.4578 261.837 71.4578Z" fill="white"/>
<circle cx="161" cy="94.6938" r="2.5" fill="white"/>
<circle cx="174" cy="94.6938" r="2.5" fill="white" fill-opacity="0.5"/>
</svg>
