<svg width="844" height="71" viewBox="0 0 844 71" fill="none" xmlns="http://www.w3.org/2000/svg">
<rect width="843.34" height="70" transform="translate(0 0.670898)" fill="#29B64E"/>
<path d="M225.987 43.1929L221.829 27.7709H224.337L227.395 40.5309L230.915 27.7709H233.489L236.899 40.5309L239.957 27.7709H242.465L238.241 43.1709H235.513L232.147 31.0929L228.671 43.1709L225.987 43.1929ZM248.438 43.4349C247.368 43.4349 246.414 43.2002 245.578 42.7309C244.757 42.2469 244.112 41.5796 243.642 40.7289C243.173 39.8782 242.938 38.8882 242.938 37.7589C242.938 36.6149 243.166 35.6102 243.62 34.7449C244.09 33.8796 244.735 33.2049 245.556 32.7209C246.392 32.2369 247.36 31.9949 248.46 31.9949C249.531 31.9949 250.462 32.2369 251.254 32.7209C252.046 33.1902 252.662 33.8209 253.102 34.6129C253.542 35.4049 253.762 36.2776 253.762 37.2309C253.762 37.3776 253.755 37.5389 253.74 37.7149C253.74 37.8762 253.733 38.0596 253.718 38.2649H245.226C245.3 39.3209 245.644 40.1276 246.26 40.6849C246.891 41.2276 247.617 41.4989 248.438 41.4989C249.098 41.4989 249.648 41.3522 250.088 41.0589C250.543 40.7509 250.88 40.3402 251.1 39.8269H253.432C253.139 40.8536 252.552 41.7116 251.672 42.4009C250.807 43.0902 249.729 43.4349 248.438 43.4349ZM248.438 33.9089C247.661 33.9089 246.972 34.1436 246.37 34.6129C245.769 35.0676 245.402 35.7569 245.27 36.6809H251.43C251.386 35.8302 251.086 35.1556 250.528 34.6569C249.971 34.1582 249.274 33.9089 248.438 33.9089ZM265.333 43.4349C264.409 43.4349 263.646 43.2809 263.045 42.9729C262.444 42.6649 261.996 42.2616 261.703 41.7629C261.41 41.2496 261.263 40.6922 261.263 40.0909C261.263 39.0349 261.674 38.1989 262.495 37.5829C263.316 36.9669 264.49 36.6589 266.015 36.6589H268.875V36.4609C268.875 35.6102 268.64 34.9722 268.171 34.5469C267.716 34.1216 267.122 33.9089 266.389 33.9089C265.744 33.9089 265.179 34.0702 264.695 34.3929C264.226 34.7009 263.94 35.1629 263.837 35.7789H261.505C261.578 34.9869 261.842 34.3122 262.297 33.7549C262.766 33.1829 263.353 32.7502 264.057 32.4569C264.776 32.1489 265.56 31.9949 266.411 31.9949C267.936 31.9949 269.117 32.3982 269.953 33.2049C270.789 33.9969 271.207 35.0822 271.207 36.4609V43.1709H269.183L268.985 41.3009C268.677 41.9022 268.23 42.4082 267.643 42.8189C267.056 43.2296 266.286 43.4349 265.333 43.4349ZM265.795 41.5429C266.426 41.5429 266.954 41.3962 267.379 41.1029C267.819 40.7949 268.156 40.3916 268.391 39.8929C268.64 39.3942 268.794 38.8442 268.853 38.2429H266.257C265.333 38.2429 264.673 38.4042 264.277 38.7269C263.896 39.0496 263.705 39.4529 263.705 39.9369C263.705 40.4356 263.888 40.8316 264.255 41.1249C264.636 41.4036 265.15 41.5429 265.795 41.5429ZM273.882 43.1709V32.2589H275.972L276.17 34.3269C276.551 33.6082 277.079 33.0436 277.754 32.6329C278.443 32.2076 279.272 31.9949 280.24 31.9949V34.4369H279.602C278.957 34.4369 278.377 34.5469 277.864 34.7669C277.365 34.9722 276.962 35.3316 276.654 35.8449C276.361 36.3436 276.214 37.0402 276.214 37.9349V43.1709H273.882ZM286.999 43.4349C285.928 43.4349 284.975 43.2002 284.139 42.7309C283.317 42.2469 282.672 41.5796 282.203 40.7289C281.733 39.8782 281.499 38.8882 281.499 37.7589C281.499 36.6149 281.726 35.6102 282.181 34.7449C282.65 33.8796 283.295 33.2049 284.117 32.7209C284.953 32.2369 285.921 31.9949 287.021 31.9949C288.091 31.9949 289.023 32.2369 289.815 32.7209C290.607 33.1902 291.223 33.8209 291.663 34.6129C292.103 35.4049 292.323 36.2776 292.323 37.2309C292.323 37.3776 292.315 37.5389 292.301 37.7149C292.301 37.8762 292.293 38.0596 292.279 38.2649H283.787C283.86 39.3209 284.205 40.1276 284.821 40.6849C285.451 41.2276 286.177 41.4989 286.999 41.4989C287.659 41.4989 288.209 41.3522 288.649 41.0589C289.103 40.7509 289.441 40.3402 289.661 39.8269H291.993C291.699 40.8536 291.113 41.7116 290.233 42.4009C289.367 43.0902 288.289 43.4349 286.999 43.4349ZM286.999 33.9089C286.221 33.9089 285.532 34.1436 284.931 34.6129C284.329 35.0676 283.963 35.7569 283.831 36.6809H289.991C289.947 35.8302 289.646 35.1556 289.089 34.6569C288.531 34.1582 287.835 33.9089 286.999 33.9089ZM301.517 30.1909C301.077 30.1909 300.711 30.0589 300.417 29.7949C300.139 29.5162 299.999 29.1716 299.999 28.7609C299.999 28.3502 300.139 28.0129 300.417 27.7489C300.711 27.4702 301.077 27.3309 301.517 27.3309C301.957 27.3309 302.317 27.4702 302.595 27.7489C302.889 28.0129 303.035 28.3502 303.035 28.7609C303.035 29.1716 302.889 29.5162 302.595 29.7949C302.317 30.0589 301.957 30.1909 301.517 30.1909ZM300.351 43.1709V32.2589H302.683V43.1709H300.351ZM305.718 43.1709V32.2589H307.786L307.962 34.1729C308.299 33.4982 308.79 32.9702 309.436 32.5889C310.096 32.1929 310.851 31.9949 311.702 31.9949C313.022 31.9949 314.056 32.4056 314.804 33.2269C315.566 34.0482 315.948 35.2729 315.948 36.9009V43.1709H313.638V37.1429C313.638 35.0309 312.772 33.9749 311.042 33.9749C310.176 33.9749 309.458 34.2829 308.886 34.8989C308.328 35.5149 308.05 36.3949 308.05 37.5389V43.1709H305.718ZM323.226 43.1709C322.156 43.1709 321.305 42.9142 320.674 42.4009C320.044 41.8729 319.728 40.9416 319.728 39.6069V34.2169H317.858V32.2589H319.728L320.014 29.4869H322.06V32.2589H325.14V34.2169H322.06V39.6069C322.06 40.2082 322.185 40.6262 322.434 40.8609C322.698 41.0809 323.146 41.1909 323.776 41.1909H325.03V43.1709H323.226ZM327.501 43.1709V32.2589H329.591L329.789 34.3269C330.17 33.6082 330.698 33.0436 331.373 32.6329C332.062 32.2076 332.891 31.9949 333.859 31.9949V34.4369H333.221C332.575 34.4369 331.996 34.5469 331.483 34.7669C330.984 34.9722 330.581 35.3316 330.273 35.8449C329.979 36.3436 329.833 37.0402 329.833 37.9349V43.1709H327.501ZM340.617 43.4349C339.576 43.4349 338.637 43.2002 337.801 42.7309C336.98 42.2469 336.327 41.5796 335.843 40.7289C335.359 39.8636 335.117 38.8589 335.117 37.7149C335.117 36.5709 335.359 35.5736 335.843 34.7229C336.342 33.8576 337.009 33.1902 337.845 32.7209C338.681 32.2369 339.613 31.9949 340.639 31.9949C341.681 31.9949 342.612 32.2369 343.433 32.7209C344.269 33.1902 344.929 33.8576 345.413 34.7229C345.912 35.5736 346.161 36.5709 346.161 37.7149C346.161 38.8589 345.912 39.8636 345.413 40.7289C344.929 41.5796 344.269 42.2469 343.433 42.7309C342.597 43.2002 341.659 43.4349 340.617 43.4349ZM340.617 41.4329C341.175 41.4329 341.688 41.2936 342.157 41.0149C342.641 40.7362 343.03 40.3256 343.323 39.7829C343.617 39.2256 343.763 38.5362 343.763 37.7149C343.763 36.8936 343.617 36.2116 343.323 35.6689C343.045 35.1116 342.663 34.6936 342.179 34.4149C341.71 34.1362 341.197 33.9969 340.639 33.9969C340.082 33.9969 339.561 34.1362 339.077 34.4149C338.608 34.6936 338.227 35.1116 337.933 35.6689C337.64 36.2116 337.493 36.8936 337.493 37.7149C337.493 38.5362 337.64 39.2256 337.933 39.7829C338.227 40.3256 338.608 40.7362 339.077 41.0149C339.547 41.2936 340.06 41.4329 340.617 41.4329ZM353.611 43.4349C352.555 43.4349 351.624 43.1856 350.817 42.6869C350.011 42.1882 349.38 41.5062 348.925 40.6409C348.471 39.7756 348.243 38.7929 348.243 37.6929C348.243 36.5929 348.471 35.6176 348.925 34.7669C349.38 33.9016 350.011 33.2269 350.817 32.7429C351.639 32.2442 352.577 31.9949 353.633 31.9949C354.499 31.9949 355.254 32.1636 355.899 32.5009C356.559 32.8382 357.073 33.3149 357.439 33.9309V27.3309H359.771V43.1709H357.681L357.439 41.4769C357.087 41.9902 356.603 42.4449 355.987 42.8409C355.371 43.2369 354.579 43.4349 353.611 43.4349ZM354.029 41.4109C355.027 41.4109 355.841 41.0662 356.471 40.3769C357.117 39.6876 357.439 38.8002 357.439 37.7149C357.439 36.6149 357.117 35.7276 356.471 35.0529C355.841 34.3636 355.027 34.0189 354.029 34.0189C353.032 34.0189 352.211 34.3636 351.565 35.0529C350.92 35.7276 350.597 36.6149 350.597 37.7149C350.597 38.4336 350.744 39.0716 351.037 39.6289C351.331 40.1862 351.734 40.6262 352.247 40.9489C352.775 41.2569 353.369 41.4109 354.029 41.4109ZM366.694 43.4349C365.374 43.4349 364.332 43.0242 363.57 42.2029C362.822 41.3816 362.448 40.1569 362.448 38.5289V32.2589H364.78V38.2869C364.78 40.3989 365.645 41.4549 367.376 41.4549C368.241 41.4549 368.952 41.1469 369.51 40.5309C370.067 39.9149 370.346 39.0349 370.346 37.8909V32.2589H372.678V43.1709H370.61L370.434 41.2569C370.096 41.9316 369.598 42.4669 368.938 42.8629C368.292 43.2442 367.544 43.4349 366.694 43.4349ZM380.77 43.4349C379.7 43.4349 378.739 43.1929 377.888 42.7089C377.052 42.2249 376.392 41.5576 375.908 40.7069C375.439 39.8416 375.204 38.8442 375.204 37.7149C375.204 36.5856 375.439 35.5956 375.908 34.7449C376.392 33.8796 377.052 33.2049 377.888 32.7209C378.739 32.2369 379.7 31.9949 380.77 31.9949C382.12 31.9949 383.249 32.3469 384.158 33.0509C385.082 33.7549 385.676 34.7082 385.94 35.9109H383.498C383.352 35.3096 383.029 34.8402 382.53 34.5029C382.032 34.1656 381.445 33.9969 380.77 33.9969C380.198 33.9969 379.67 34.1436 379.186 34.4369C378.702 34.7156 378.314 35.1336 378.02 35.6909C377.727 36.2336 377.58 36.9082 377.58 37.7149C377.58 38.5216 377.727 39.2036 378.02 39.7609C378.314 40.3036 378.702 40.7216 379.186 41.0149C379.67 41.3082 380.198 41.4549 380.77 41.4549C381.445 41.4549 382.032 41.2862 382.53 40.9489C383.029 40.6116 383.352 40.1349 383.498 39.5189H385.94C385.691 40.6922 385.104 41.6382 384.18 42.3569C383.256 43.0756 382.12 43.4349 380.77 43.4349ZM389.745 30.1909C389.305 30.1909 388.939 30.0589 388.645 29.7949C388.367 29.5162 388.227 29.1716 388.227 28.7609C388.227 28.3502 388.367 28.0129 388.645 27.7489C388.939 27.4702 389.305 27.3309 389.745 27.3309C390.185 27.3309 390.545 27.4702 390.823 27.7489C391.117 28.0129 391.263 28.3502 391.263 28.7609C391.263 29.1716 391.117 29.5162 390.823 29.7949C390.545 30.0589 390.185 30.1909 389.745 30.1909ZM388.579 43.1709V32.2589H390.911V43.1709H388.579ZM393.946 43.1709V32.2589H396.014L396.19 34.1729C396.527 33.4982 397.018 32.9702 397.664 32.5889C398.324 32.1929 399.079 31.9949 399.93 31.9949C401.25 31.9949 402.284 32.4056 403.032 33.2269C403.794 34.0482 404.176 35.2729 404.176 36.9009V43.1709H401.866V37.1429C401.866 35.0309 401 33.9749 399.27 33.9749C398.404 33.9749 397.686 34.2829 397.114 34.8989C396.556 35.5149 396.278 36.3949 396.278 37.5389V43.1709H393.946ZM411.344 39.8269C410.772 39.8269 410.244 39.7609 409.76 39.6289L408.814 40.5529C408.976 40.6556 409.174 40.7436 409.408 40.8169C409.643 40.8902 409.973 40.9562 410.398 41.0149C410.824 41.0736 411.403 41.1322 412.136 41.1909C413.588 41.3229 414.637 41.6749 415.282 42.2469C415.928 42.8042 416.25 43.5522 416.25 44.4909C416.25 45.1362 416.074 45.7449 415.722 46.3169C415.385 46.9036 414.85 47.3729 414.116 47.7249C413.398 48.0916 412.474 48.2749 411.344 48.2749C409.819 48.2749 408.58 47.9816 407.626 47.3949C406.688 46.8229 406.218 45.9502 406.218 44.7769C406.218 44.3222 406.336 43.8676 406.57 43.4129C406.82 42.9729 407.208 42.5549 407.736 42.1589C407.428 42.0269 407.157 41.8876 406.922 41.7409C406.702 41.5796 406.504 41.4182 406.328 41.2569V40.7289L408.22 38.7929C407.37 38.0596 406.944 37.0989 406.944 35.9109C406.944 35.1922 407.113 34.5396 407.45 33.9529C407.802 33.3516 408.308 32.8749 408.968 32.5229C409.628 32.1709 410.42 31.9949 411.344 31.9949C411.96 31.9949 412.532 32.0829 413.06 32.2589H417.13V33.7989L415.194 33.9089C415.546 34.5102 415.722 35.1776 415.722 35.9109C415.722 36.6442 415.546 37.3042 415.194 37.8909C414.857 38.4776 414.358 38.9469 413.698 39.2989C413.053 39.6509 412.268 39.8269 411.344 39.8269ZM411.344 38.0009C412.019 38.0009 412.562 37.8249 412.972 37.4729C413.398 37.1062 413.61 36.5929 413.61 35.9329C413.61 35.2582 413.398 34.7449 412.972 34.3929C412.562 34.0409 412.019 33.8649 411.344 33.8649C410.655 33.8649 410.098 34.0409 409.672 34.3929C409.262 34.7449 409.056 35.2582 409.056 35.9329C409.056 36.5929 409.262 37.1062 409.672 37.4729C410.098 37.8249 410.655 38.0009 411.344 38.0009ZM408.418 44.5569C408.418 45.1876 408.697 45.6569 409.254 45.9649C409.812 46.2876 410.508 46.4489 411.344 46.4489C412.151 46.4489 412.804 46.2729 413.302 45.9209C413.801 45.5836 414.05 45.1289 414.05 44.5569C414.05 44.1316 413.882 43.7649 413.544 43.4569C413.207 43.1636 412.569 42.9802 411.63 42.9069C410.926 42.8629 410.303 42.7969 409.76 42.7089C409.247 42.9876 408.895 43.2882 408.704 43.6109C408.514 43.9336 408.418 44.2489 408.418 44.5569ZM429.021 43.4349C427.643 43.4349 426.506 43.0976 425.611 42.4229C424.717 41.7482 424.203 40.8536 424.071 39.7389H426.425C426.543 40.2376 426.821 40.6702 427.261 41.0369C427.701 41.3889 428.281 41.5649 428.999 41.5649C429.703 41.5649 430.217 41.4182 430.539 41.1249C430.862 40.8316 431.023 40.4942 431.023 40.1129C431.023 39.5556 430.796 39.1816 430.341 38.9909C429.901 38.7856 429.285 38.6022 428.493 38.4409C427.877 38.3089 427.261 38.1329 426.645 37.9129C426.044 37.6929 425.538 37.3849 425.127 36.9889C424.731 36.5782 424.533 36.0282 424.533 35.3389C424.533 34.3856 424.9 33.5936 425.633 32.9629C426.367 32.3176 427.393 31.9949 428.713 31.9949C429.931 31.9949 430.913 32.2882 431.661 32.8749C432.424 33.4616 432.871 34.2902 433.003 35.3609H430.759C430.686 34.8916 430.466 34.5249 430.099 34.2609C429.747 33.9969 429.271 33.8649 428.669 33.8649C428.083 33.8649 427.628 33.9896 427.305 34.2389C426.983 34.4736 426.821 34.7816 426.821 35.1629C426.821 35.5442 427.041 35.8449 427.481 36.0649C427.936 36.2849 428.53 36.4829 429.263 36.6589C429.997 36.8202 430.671 37.0109 431.287 37.2309C431.918 37.4362 432.424 37.7442 432.805 38.1549C433.187 38.5656 433.377 39.1669 433.377 39.9589C433.392 40.9562 433.003 41.7849 432.211 42.4449C431.434 43.1049 430.371 43.4349 429.021 43.4349ZM437.199 30.1909C436.759 30.1909 436.393 30.0589 436.099 29.7949C435.821 29.5162 435.681 29.1716 435.681 28.7609C435.681 28.3502 435.821 28.0129 436.099 27.7489C436.393 27.4702 436.759 27.3309 437.199 27.3309C437.639 27.3309 437.999 27.4702 438.277 27.7489C438.571 28.0129 438.717 28.3502 438.717 28.7609C438.717 29.1716 438.571 29.5162 438.277 29.7949C437.999 30.0589 437.639 30.1909 437.199 30.1909ZM436.033 43.1709V32.2589H438.365V43.1709H436.033ZM445.866 39.8269C445.294 39.8269 444.766 39.7609 444.282 39.6289L443.336 40.5529C443.497 40.6556 443.695 40.7436 443.93 40.8169C444.164 40.8902 444.494 40.9562 444.92 41.0149C445.345 41.0736 445.924 41.1322 446.658 41.1909C448.11 41.3229 449.158 41.6749 449.804 42.2469C450.449 42.8042 450.772 43.5522 450.772 44.4909C450.772 45.1362 450.596 45.7449 450.244 46.3169C449.906 46.9036 449.371 47.3729 448.638 47.7249C447.919 48.0916 446.995 48.2749 445.866 48.2749C444.34 48.2749 443.101 47.9816 442.148 47.3949C441.209 46.8229 440.74 45.9502 440.74 44.7769C440.74 44.3222 440.857 43.8676 441.092 43.4129C441.341 42.9729 441.73 42.5549 442.258 42.1589C441.95 42.0269 441.678 41.8876 441.444 41.7409C441.224 41.5796 441.026 41.4182 440.85 41.2569V40.7289L442.742 38.7929C441.891 38.0596 441.466 37.0989 441.466 35.9109C441.466 35.1922 441.634 34.5396 441.972 33.9529C442.324 33.3516 442.83 32.8749 443.49 32.5229C444.15 32.1709 444.942 31.9949 445.866 31.9949C446.482 31.9949 447.054 32.0829 447.582 32.2589H451.652V33.7989L449.716 33.9089C450.068 34.5102 450.244 35.1776 450.244 35.9109C450.244 36.6442 450.068 37.3042 449.716 37.8909C449.378 38.4776 448.88 38.9469 448.22 39.2989C447.574 39.6509 446.79 39.8269 445.866 39.8269ZM445.866 38.0009C446.54 38.0009 447.083 37.8249 447.494 37.4729C447.919 37.1062 448.132 36.5929 448.132 35.9329C448.132 35.2582 447.919 34.7449 447.494 34.3929C447.083 34.0409 446.54 33.8649 445.866 33.8649C445.176 33.8649 444.619 34.0409 444.194 34.3929C443.783 34.7449 443.578 35.2582 443.578 35.9329C443.578 36.5929 443.783 37.1062 444.194 37.4729C444.619 37.8249 445.176 38.0009 445.866 38.0009ZM442.94 44.5569C442.94 45.1876 443.218 45.6569 443.776 45.9649C444.333 46.2876 445.03 46.4489 445.866 46.4489C446.672 46.4489 447.325 46.2729 447.824 45.9209C448.322 45.5836 448.572 45.1289 448.572 44.5569C448.572 44.1316 448.403 43.7649 448.066 43.4569C447.728 43.1636 447.09 42.9802 446.152 42.9069C445.448 42.8629 444.824 42.7969 444.282 42.7089C443.768 42.9876 443.416 43.2882 443.226 43.6109C443.035 43.9336 442.94 44.2489 442.94 44.5569ZM453.688 43.1709V32.2589H455.756L455.932 34.1729C456.269 33.4982 456.76 32.9702 457.406 32.5889C458.066 32.1929 458.821 31.9949 459.672 31.9949C460.992 31.9949 462.026 32.4056 462.774 33.2269C463.536 34.0482 463.918 35.2729 463.918 36.9009V43.1709H461.608V37.1429C461.608 35.0309 460.742 33.9749 459.012 33.9749C458.146 33.9749 457.428 34.2829 456.856 34.8989C456.298 35.5149 456.02 36.3949 456.02 37.5389V43.1709H453.688ZM467.94 30.1909C467.5 30.1909 467.134 30.0589 466.84 29.7949C466.562 29.5162 466.422 29.1716 466.422 28.7609C466.422 28.3502 466.562 28.0129 466.84 27.7489C467.134 27.4702 467.5 27.3309 467.94 27.3309C468.38 27.3309 468.74 27.4702 469.018 27.7489C469.312 28.0129 469.458 28.3502 469.458 28.7609C469.458 29.1716 469.312 29.5162 469.018 29.7949C468.74 30.0589 468.38 30.1909 467.94 30.1909ZM466.774 43.1709V32.2589H469.106V43.1709H466.774ZM472.691 43.1709V34.2169H471.129V32.2589H472.691V30.6749C472.691 29.4869 472.984 28.6362 473.571 28.1229C474.172 27.5949 475.015 27.3309 476.101 27.3309H477.245V29.3109H476.453C475.939 29.3109 475.573 29.4209 475.353 29.6409C475.133 29.8462 475.023 30.1982 475.023 30.6969V32.2589H481.931V43.1709H479.599V34.2169H475.023V43.1709H472.691ZM480.787 30.4329C480.347 30.4329 479.98 30.3009 479.687 30.0369C479.408 29.7582 479.269 29.4062 479.269 28.9809C479.269 28.5702 479.408 28.2329 479.687 27.9689C479.98 27.7049 480.347 27.5729 480.787 27.5729C481.227 27.5729 481.586 27.7049 481.865 27.9689C482.158 28.2329 482.305 28.5702 482.305 28.9809C482.305 29.4062 482.158 29.7582 481.865 30.0369C481.586 30.3009 481.227 30.4329 480.787 30.4329ZM490.157 43.4349C489.087 43.4349 488.126 43.1929 487.275 42.7089C486.439 42.2249 485.779 41.5576 485.295 40.7069C484.826 39.8416 484.591 38.8442 484.591 37.7149C484.591 36.5856 484.826 35.5956 485.295 34.7449C485.779 33.8796 486.439 33.2049 487.275 32.7209C488.126 32.2369 489.087 31.9949 490.157 31.9949C491.507 31.9949 492.636 32.3469 493.545 33.0509C494.469 33.7549 495.063 34.7082 495.327 35.9109H492.885C492.739 35.3096 492.416 34.8402 491.917 34.5029C491.419 34.1656 490.832 33.9969 490.157 33.9969C489.585 33.9969 489.057 34.1436 488.573 34.4369C488.089 34.7156 487.701 35.1336 487.407 35.6909C487.114 36.2336 486.967 36.9082 486.967 37.7149C486.967 38.5216 487.114 39.2036 487.407 39.7609C487.701 40.3036 488.089 40.7216 488.573 41.0149C489.057 41.3082 489.585 41.4549 490.157 41.4549C490.832 41.4549 491.419 41.2862 491.917 40.9489C492.416 40.6116 492.739 40.1349 492.885 39.5189H495.327C495.078 40.6922 494.491 41.6382 493.567 42.3569C492.643 43.0756 491.507 43.4349 490.157 43.4349ZM501.508 43.4349C500.584 43.4349 499.822 43.2809 499.22 42.9729C498.619 42.6649 498.172 42.2616 497.878 41.7629C497.585 41.2496 497.438 40.6922 497.438 40.0909C497.438 39.0349 497.849 38.1989 498.67 37.5829C499.492 36.9669 500.665 36.6589 502.19 36.6589H505.05V36.4609C505.05 35.6102 504.816 34.9722 504.346 34.5469C503.892 34.1216 503.298 33.9089 502.564 33.9089C501.919 33.9089 501.354 34.0702 500.87 34.3929C500.401 34.7009 500.115 35.1629 500.012 35.7789H497.68C497.754 34.9869 498.018 34.3122 498.472 33.7549C498.942 33.1829 499.528 32.7502 500.232 32.4569C500.951 32.1489 501.736 31.9949 502.586 31.9949C504.112 31.9949 505.292 32.3982 506.128 33.2049C506.964 33.9969 507.382 35.0822 507.382 36.4609V43.1709H505.358L505.16 41.3009C504.852 41.9022 504.405 42.4082 503.818 42.8189C503.232 43.2296 502.462 43.4349 501.508 43.4349ZM501.97 41.5429C502.601 41.5429 503.129 41.3962 503.554 41.1029C503.994 40.7949 504.332 40.3916 504.566 39.8929C504.816 39.3942 504.97 38.8442 505.028 38.2429H502.432C501.508 38.2429 500.848 38.4042 500.452 38.7269C500.071 39.0496 499.88 39.4529 499.88 39.9369C499.88 40.4356 500.064 40.8316 500.43 41.1249C500.812 41.4036 501.325 41.5429 501.97 41.5429ZM510.057 43.1709V32.2589H512.125L512.301 34.1729C512.639 33.4982 513.13 32.9702 513.775 32.5889C514.435 32.1929 515.191 31.9949 516.041 31.9949C517.361 31.9949 518.395 32.4056 519.143 33.2269C519.906 34.0482 520.287 35.2729 520.287 36.9009V43.1709H517.977V37.1429C517.977 35.0309 517.112 33.9749 515.381 33.9749C514.516 33.9749 513.797 34.2829 513.225 34.8989C512.668 35.5149 512.389 36.3949 512.389 37.5389V43.1709H510.057ZM527.566 43.1709C526.495 43.1709 525.645 42.9142 525.014 42.4009C524.383 41.8729 524.068 40.9416 524.068 39.6069V34.2169H522.198V32.2589H524.068L524.354 29.4869H526.4V32.2589H529.48V34.2169H526.4V39.6069C526.4 40.2082 526.525 40.6262 526.774 40.8609C527.038 41.0809 527.485 41.1909 528.116 41.1909H529.37V43.1709H527.566ZM542.51 43.4349C541.439 43.4349 540.478 43.1929 539.628 42.7089C538.792 42.2249 538.132 41.5576 537.648 40.7069C537.178 39.8416 536.944 38.8442 536.944 37.7149C536.944 36.5856 537.178 35.5956 537.648 34.7449C538.132 33.8796 538.792 33.2049 539.628 32.7209C540.478 32.2369 541.439 31.9949 542.51 31.9949C543.859 31.9949 544.988 32.3469 545.898 33.0509C546.822 33.7549 547.416 34.7082 547.68 35.9109H545.238C545.091 35.3096 544.768 34.8402 544.27 34.5029C543.771 34.1656 543.184 33.9969 542.51 33.9969C541.938 33.9969 541.41 34.1436 540.926 34.4369C540.442 34.7156 540.053 35.1336 539.76 35.6909C539.466 36.2336 539.32 36.9082 539.32 37.7149C539.32 38.5216 539.466 39.2036 539.76 39.7609C540.053 40.3036 540.442 40.7216 540.926 41.0149C541.41 41.3082 541.938 41.4549 542.51 41.4549C543.184 41.4549 543.771 41.2862 544.27 40.9489C544.768 40.6116 545.091 40.1349 545.238 39.5189H547.68C547.43 40.6922 546.844 41.6382 545.92 42.3569C544.996 43.0756 543.859 43.4349 542.51 43.4349ZM550.165 43.1709V27.3309H552.497V34.0189C552.863 33.3882 553.369 32.8969 554.015 32.5449C554.675 32.1782 555.401 31.9949 556.193 31.9949C557.498 31.9949 558.525 32.4056 559.273 33.2269C560.021 34.0482 560.395 35.2729 560.395 36.9009V43.1709H558.085V37.1429C558.085 35.0309 557.241 33.9749 555.555 33.9749C554.675 33.9749 553.941 34.2829 553.355 34.8989C552.783 35.5149 552.497 36.3949 552.497 37.5389V43.1709H550.165ZM566.793 43.4349C565.869 43.4349 565.107 43.2809 564.505 42.9729C563.904 42.6649 563.457 42.2616 563.163 41.7629C562.87 41.2496 562.723 40.6922 562.723 40.0909C562.723 39.0349 563.134 38.1989 563.955 37.5829C564.777 36.9669 565.95 36.6589 567.475 36.6589H570.335V36.4609C570.335 35.6102 570.101 34.9722 569.631 34.5469C569.177 34.1216 568.583 33.9089 567.849 33.9089C567.204 33.9089 566.639 34.0702 566.155 34.3929C565.686 34.7009 565.4 35.1629 565.297 35.7789H562.965C563.039 34.9869 563.303 34.3122 563.757 33.7549C564.227 33.1829 564.813 32.7502 565.517 32.4569C566.236 32.1489 567.021 31.9949 567.871 31.9949C569.397 31.9949 570.577 32.3982 571.413 33.2049C572.249 33.9969 572.667 35.0822 572.667 36.4609V43.1709H570.643L570.445 41.3009C570.137 41.9022 569.69 42.4082 569.103 42.8189C568.517 43.2296 567.747 43.4349 566.793 43.4349ZM567.255 41.5429C567.886 41.5429 568.414 41.3962 568.839 41.1029C569.279 40.7949 569.617 40.3916 569.851 39.8929C570.101 39.3942 570.255 38.8442 570.313 38.2429H567.717C566.793 38.2429 566.133 38.4042 565.737 38.7269C565.356 39.0496 565.165 39.4529 565.165 39.9369C565.165 40.4356 565.349 40.8316 565.715 41.1249C566.097 41.4036 566.61 41.5429 567.255 41.5429ZM575.342 43.1709V32.2589H577.41L577.586 34.1729C577.924 33.4982 578.415 32.9702 579.06 32.5889C579.72 32.1929 580.476 31.9949 581.326 31.9949C582.646 31.9949 583.68 32.4056 584.428 33.2269C585.191 34.0482 585.572 35.2729 585.572 36.9009V43.1709H583.262V37.1429C583.262 35.0309 582.397 33.9749 580.666 33.9749C579.801 33.9749 579.082 34.2829 578.51 34.8989C577.953 35.5149 577.674 36.3949 577.674 37.5389V43.1709H575.342ZM592.741 39.8269C592.169 39.8269 591.641 39.7609 591.157 39.6289L590.211 40.5529C590.372 40.6556 590.57 40.7436 590.805 40.8169C591.04 40.8902 591.37 40.9562 591.795 41.0149C592.22 41.0736 592.8 41.1322 593.533 41.1909C594.985 41.3229 596.034 41.6749 596.679 42.2469C597.324 42.8042 597.647 43.5522 597.647 44.4909C597.647 45.1362 597.471 45.7449 597.119 46.3169C596.782 46.9036 596.246 47.3729 595.513 47.7249C594.794 48.0916 593.87 48.2749 592.741 48.2749C591.216 48.2749 589.976 47.9816 589.023 47.3949C588.084 46.8229 587.615 45.9502 587.615 44.7769C587.615 44.3222 587.732 43.8676 587.967 43.4129C588.216 42.9729 588.605 42.5549 589.133 42.1589C588.825 42.0269 588.554 41.8876 588.319 41.7409C588.099 41.5796 587.901 41.4182 587.725 41.2569V40.7289L589.617 38.7929C588.766 38.0596 588.341 37.0989 588.341 35.9109C588.341 35.1922 588.51 34.5396 588.847 33.9529C589.199 33.3516 589.705 32.8749 590.365 32.5229C591.025 32.1709 591.817 31.9949 592.741 31.9949C593.357 31.9949 593.929 32.0829 594.457 32.2589H598.527V33.7989L596.591 33.9089C596.943 34.5102 597.119 35.1776 597.119 35.9109C597.119 36.6442 596.943 37.3042 596.591 37.8909C596.254 38.4776 595.755 38.9469 595.095 39.2989C594.45 39.6509 593.665 39.8269 592.741 39.8269ZM592.741 38.0009C593.416 38.0009 593.958 37.8249 594.369 37.4729C594.794 37.1062 595.007 36.5929 595.007 35.9329C595.007 35.2582 594.794 34.7449 594.369 34.3929C593.958 34.0409 593.416 33.8649 592.741 33.8649C592.052 33.8649 591.494 34.0409 591.069 34.3929C590.658 34.7449 590.453 35.2582 590.453 35.9329C590.453 36.5929 590.658 37.1062 591.069 37.4729C591.494 37.8249 592.052 38.0009 592.741 38.0009ZM589.815 44.5569C589.815 45.1876 590.094 45.6569 590.651 45.9649C591.208 46.2876 591.905 46.4489 592.741 46.4489C593.548 46.4489 594.2 46.2729 594.699 45.9209C595.198 45.5836 595.447 45.1289 595.447 44.5569C595.447 44.1316 595.278 43.7649 594.941 43.4569C594.604 43.1636 593.966 42.9802 593.027 42.9069C592.323 42.8629 591.7 42.7969 591.157 42.7089C590.644 42.9876 590.292 43.2882 590.101 43.6109C589.91 43.9336 589.815 44.2489 589.815 44.5569ZM605.237 43.4349C604.167 43.4349 603.213 43.2002 602.377 42.7309C601.556 42.2469 600.911 41.5796 600.441 40.7289C599.972 39.8782 599.737 38.8882 599.737 37.7589C599.737 36.6149 599.965 35.6102 600.419 34.7449C600.889 33.8796 601.534 33.2049 602.355 32.7209C603.191 32.2369 604.159 31.9949 605.259 31.9949C606.33 31.9949 607.261 32.2369 608.053 32.7209C608.845 33.1902 609.461 33.8209 609.901 34.6129C610.341 35.4049 610.561 36.2776 610.561 37.2309C610.561 37.3776 610.554 37.5389 610.539 37.7149C610.539 37.8762 610.532 38.0596 610.517 38.2649H602.025C602.099 39.3209 602.443 40.1276 603.059 40.6849C603.69 41.2276 604.416 41.4989 605.237 41.4989C605.897 41.4989 606.447 41.3522 606.887 41.0589C607.342 40.7509 607.679 40.3402 607.899 39.8269H610.231C609.938 40.8536 609.351 41.7116 608.471 42.4009C607.606 43.0902 606.528 43.4349 605.237 43.4349ZM605.237 33.9089C604.46 33.9089 603.771 34.1436 603.169 34.6129C602.568 35.0676 602.201 35.7569 602.069 36.6809H608.229C608.185 35.8302 607.885 35.1556 607.327 34.6569C606.77 34.1582 606.073 33.9089 605.237 33.9089ZM617.293 43.4349C615.914 43.4349 614.778 43.0976 613.883 42.4229C612.988 41.7482 612.475 40.8536 612.343 39.7389H614.697C614.814 40.2376 615.093 40.6702 615.533 41.0369C615.973 41.3889 616.552 41.5649 617.271 41.5649C617.975 41.5649 618.488 41.4182 618.811 41.1249C619.134 40.8316 619.295 40.4942 619.295 40.1129C619.295 39.5556 619.068 39.1816 618.613 38.9909C618.173 38.7856 617.557 38.6022 616.765 38.4409C616.149 38.3089 615.533 38.1329 614.917 37.9129C614.316 37.6929 613.81 37.3849 613.399 36.9889C613.003 36.5782 612.805 36.0282 612.805 35.3389C612.805 34.3856 613.172 33.5936 613.905 32.9629C614.638 32.3176 615.665 31.9949 616.985 31.9949C618.202 31.9949 619.185 32.2882 619.933 32.8749C620.696 33.4616 621.143 34.2902 621.275 35.3609H619.031C618.958 34.8916 618.738 34.5249 618.371 34.2609C618.019 33.9969 617.542 33.8649 616.941 33.8649C616.354 33.8649 615.9 33.9896 615.577 34.2389C615.254 34.4736 615.093 34.7816 615.093 35.1629C615.093 35.5442 615.313 35.8449 615.753 36.0649C616.208 36.2849 616.802 36.4829 617.535 36.6589C618.268 36.8202 618.943 37.0109 619.559 37.2309C620.19 37.4362 620.696 37.7442 621.077 38.1549C621.458 38.5656 621.649 39.1669 621.649 39.9589C621.664 40.9562 621.275 41.7849 620.483 42.4449C619.706 43.1049 618.642 43.4349 617.293 43.4349Z" fill="white"/>
</svg>
